<svg xmlns="http://www.w3.org/2000/svg" version="1.1" xmlns:xlink="http://www.w3.org/1999/xlink" xmlns:svgjs="http://svgjs.com/svgjs" width="512" height="512" x="0" y="0" viewBox="0 0 511.996 511.996" style="enable-background:new 0 0 512 512" xml:space="preserve" class="hovered-paths"><g>
<g>
	<path style="" d="M306.48,78.072l-5.271,0.675l-8.838,1.286l-8.807,1.254l-5.817,0.868
		c-7.039,1.029-14.368,2.089-21.567,2.572c-8.389,0.611-16.938,0.964-26.164,1.124c-8.775,0.129-17.581,0.257-26.389,0.289
		l-1.254,0.032c-3.632,0-7.265-0.129-10.896-0.289l-2.989-0.065c-2.057-0.032-4.082-0.097-6.107-0.257
		c0.225,4.757,0.451,9.418,0.611,14.079c0.161,3.761-0.065,7.554-0.257,11.282l-0.097,1.543c-0.578,10.639-2.7,23.174-13.628,25.456
		c-2.604,0.578-5.4,0.611-8.292,0.611c-1.961,0-3.921-0.032-5.882-0.129c-3.15-0.129-6.332-0.418-9.481-0.74l-3.825-0.354
		c-2.604-0.225-5.239-0.225-7.875-0.257c-3.599-0.032-7.328-0.097-10.929-0.675c-1.543-0.257-2.958-0.611-4.468-1.157
		c-1.189-0.449-2.7-0.997-3.761-1.8c-1.607-1.157-3.407-2.475-4.499-4.371c-1.446-2.667-2.507-5.69-3.247-9.321
		c-0.771-3.632-0.964-7.489-1.157-11.185l-0.097-2.314l-0.578-12.374c-8.967,0.482-17.838,1.221-26.678,2.089
		c-5.56,0.803-11.056,1.8-16.586,2.893c-2.636,0.546-5.239,1.092-7.875,1.672l-1.35,0.321c-2.089,0.451-4.178,0.9-6.236,1.478
		c-1.703,4.853-2.475,10.029-3.246,15.011l-0.289,1.703c-1.061,9.867-1.929,19.702-2.667,29.602
		c-0.482,6.332-0.74,12.728-0.997,19.124l-0.289,6.879l-0.997,23.046c13.917-1.735,27.834-2.153,38.441-2.315
		c3.953-0.097,7.938-0.097,11.893-0.129l9.546-0.065c6.717-0.097,13.436-0.354,20.185-0.74c12.278-0.707,24.524-1.286,36.77-1.896
		l18.385-0.9c10.413-0.546,20.828-1.35,31.209-2.121c7.071-0.546,14.11-1.061,21.182-1.51c9.77-0.643,19.221-1.254,28.702-1.64
		c6.814-0.289,13.693-0.546,20.539-0.546c1.543,0,3.086,0.032,4.628,0.065c4.436,0.065,8.903,0.16,13.339,0.289
		c4.467,0.097,8.903,0.225,13.371,0.289l5.496,0.065c7.328,0.097,14.689,0.192,22.049,0.451c10.864,0.354,25.199,0.74,39.663,0.74
		c24.395,0,44.613-1.124,63.576-3.504c3.599-0.514,7.2-1.092,10.767-1.767c1.735-0.289,3.439-0.611,5.207-0.964
		c1.254-0.289,2.572-0.514,3.889-0.578c1.061,0,1.767,0.097,2.475,0.225l1.061,0.16c0.514,0.129,1.35,0.386,2.089,0.74
		c-1.157-13.371-2.572-29.023-3.439-44.548l-0.321-5.817c-0.418-7.746-0.803-15.46-1.286-23.206l-0.129-1.832
		c-0.483-7.585-0.964-15.203-1.767-22.725c-0.192-1.189-0.483-2.41-0.772-3.567c-1.35-0.386-2.667-0.675-4.018-0.9
		c-2.283-0.129-4.596-0.192-6.879-0.192c-2.956,0-5.914,0.097-8.838,0.192h-0.868c-5.142,0.161-10.253,0.418-15.395,0.771
		c-5.304,0.386-10.639,0.643-15.975,0.835l-7.2,0.192l-1.124,0.065c-0.546,0.032-1.092,0.065-1.607,0.065l-0.964,0.065v-0.097
		c-1.189-0.065-2.41-0.129-3.504-0.514c-1.061-0.386-2.121-0.868-3.15-1.35c-0.482-0.225-0.932-0.514-1.35-0.868
		c-0.032,3.536,0.032,7.006,0.065,10.478c0.032,6.011-0.032,12.439-0.803,18.77c-0.386,3.15-0.772,6.236-1.735,9.097
		c-0.803,2.41-1.703,5.111-3.247,7.2c-1.061,1.543-1.735,2.507-2.539,3.215c-1.383,1.189-2.186,1.897-3.118,2.346l-0.868,0.386
		c-0.804,0.386-1.607,0.74-2.443,0.997c-1.318,0.321-2.732,0.546-4.115,0.643c-1.672,0.129-3.31,0.192-4.982,0.192
		c-6.685,0-13.66-0.932-19.253-1.703c-4.564-0.611-9.064-1.318-13.596-2.121c-2.861-0.482-6.525-1.35-9.289-3.504
		c-1.993-1.543-3.215-3.182-3.858-5.174c-0.578-1.864-0.868-3.985-0.868-6.493c-0.097-8.26,0.032-17.035,0.418-26.132
		c0.097-3.182,0.225-6.332,0.386-9.514c0-0.032,0-0.065-0.032-0.065c0-0.032-0.032-0.032-0.065-0.032L306.48,78.072L306.48,78.072z" fill="#1119ad" data-original="#c03000" class=""></path>
	<path style="" d="M189.646,237.944c-5.014,0.707-9.996,2.089-15.268,4.178c-1.381,0.643-2.732,1.254-4.114,1.864
		c-1.124,0.483-2.218,1.061-3.31,1.64l-1.157,0.643c-0.997,0.483-1.929,1.029-2.893,1.575l-1.318,0.803
		c-2.475,1.414-5.014,3.053-7.554,4.95c-0.9,0.772-2.283,1.929-3.504,3.247c-1.286,1.381-2.475,2.796-3.632,4.275
		c-2.475,3.278-4.531,6.654-6.107,10.092c0.835,1.157,0.74,2.732-0.257,3.889c-0.451,0.449-0.835,0.932-1.221,1.414l-0.578,0.964
		c-0.74,1.221-1.093,1.929-1.478,2.7l-0.225,1.124c0.611,1.318,1.221,2.25,1.929,3.182c0.932,1.157,1.672,1.961,2.41,2.764
		l1.446,1.64l3.953,4.468l3.053,3.536c0.675,0.9,1.383,1.735,2.121,2.572l1.8-2.507c0.964-1.318,1.929-2.635,2.925-3.953
		c1.318-1.735,2.732-3.472,4.275-5.014c1.383-1.414,2.829-2.764,4.371-4.018c1.8-1.446,3.632-2.829,5.593-4.082
		c1.703-1.061,2.956-1.864,4.275-2.572c1.254-0.643,2.475-1.254,3.728-1.8c1.092-0.451,2.25-0.9,3.439-1.092
		c1.864-0.289,3.215-0.514,4.596-0.514l1.189-0.032v0.097c0.997,0.032,2.057,0.065,2.989,0.289c2.635,0.643,4.499,1.478,6.042,2.764
		c0.9,0.707,1.64,1.478,2.539,2.539c0.803,0.932,1.35,1.929,1.8,2.764c0.289,0.643,0.578,1.318,0.835,1.961l0.514,1.318
		l-0.065,0.032c0.257,1.189,0.514,2.41,0.611,3.696c0.321,2.893,0.578,5.979,0.225,9.064c-0.257,2.572-0.643,5.142-1.221,7.617
		c-0.643,2.667-1.478,5.785-2.636,8.775c-2.41,6.043-5.207,10.896-8.549,14.753c-1.704,1.961-3.278,3.761-4.95,5.464
		c-3.247,3.472-6.236,6.268-9.161,8.549c-3.567,2.764-7.168,5.431-10.961,7.908c-3.664,2.378-7.296,4.757-10.864,7.328
		c-1.575,1.286-3.246,2.7-4.725,4.371l-0.578,0.964c0-0.032,0-0.032,0-0.032c-0.032,0-0.225,0.514-0.354,1.029
		c-0.321,3.118-0.289,6.203-0.257,9.064c0.032,2.636,0.065,5.271,0.16,7.908c0.097,2.893,0.225,5.785,0.418,8.678
		c0.192,2.796,0.451,5.625,0.74,8.421c0.16,1.318,0.289,2.378,0.611,3.407c0.16,0.772,0.354,1.543,0.611,2.25
		c0.514,1.254,0.803,1.767,1.092,2.25l0.932,0.74c0.74,0.257,1.286,0.386,1.864,0.482c2.443,0.321,4.693,0.514,6.943,0.707
		l4.018,0.386c3.953,0.386,7.938,0.803,11.893,1.221c5.4,0.546,10.799,1.286,16.2,2.057l7.682,1.092
		c2.732,0.321,5.69,0.611,8.678,0.835c1.993,0.161,3.985,0.257,5.979,0.386l2.989,0.192c0.932,0.032,1.896,0.065,2.861,0.065h0.964
		h0.932h1.029l2.443-0.032l0.997-0.065c1.286-0.032,2.572-0.065,3.858-0.192c1.993-0.192,3.985-0.386,6.011-0.643
		c1.607-0.289,3.15-0.611,4.693-1.157l-0.868,0.386c0.611-0.225,1.189-0.514,1.767-0.868l0.611-0.835
		c0.868-2.41,1.254-4.404,1.672-6.396l0.192-0.964c0.257-1.478,0.451-2.925,0.643-4.404l0.321-2.186l-0.16,1.029
		c0.386-2.989,0.74-6.011,1.061-9.032l0.161-2.089l0.16-2.089c0.097-1.832,0.192-3.696,0.065-5.528
		c-0.418-0.482-0.707-0.643-0.997-0.772c-0.772-0.289-1.51-0.482-2.378-0.675c-0.707-0.032-1.415-0.032-2.121-0.032
		c-1.51,0-3.021,0.065-4.531,0.129l-3.278,0.097c-3.215,0.129-6.46,0.257-9.675,0.257l-8.743-0.129
		c-3.632-0.065-7.297-0.129-10.928-0.16h-9.803c-4.853-0.032-9-0.032-13.082-0.514c-0.932-0.129-1.832-0.289-2.764-0.482
		c-0.482-0.16-0.932-0.386-1.383-0.611c-1.157-0.611-1.767-2.218-1.767-3.407c0-1.575,1.189-2.925,1.929-3.567
		c0.643-0.546,1.35-1.029,2.057-1.478l0.868-0.578c2.347-1.575,4.693-3.215,6.943-4.853c1.51-1.124,2.41-1.767,3.247-2.507
		l1.318-1.124l2.41-2.024c0.9-0.74,1.735-1.543,2.604-2.346l1.092-1.029c0.643-0.578,1.254-1.189,1.864-1.8l1.414-1.35
		c5.593-5.4,10.253-10.51,14.271-15.589c1.446-1.961,2.925-3.953,4.114-6.074l0.772-1.318l0.771-1.35
		c1.672-2.925,3.278-5.882,4.628-8.967c1.124-2.764,1.961-5.207,2.507-7.522c0.643-2.475,1.124-5.014,1.478-7.521
		c0.321-2.539,0.514-5.047,0.546-7.649l-0.032-1.8v-1.767c-0.097-4.404-0.321-8.035-0.74-11.41
		c-0.964-6.074-2.41-11.41-4.468-16.457c-1.897-4.307-4.147-8.26-6.749-11.828c-2.218-2.796-4.596-5.239-7.296-7.457
		c-2.475-1.8-5.079-3.31-7.843-4.628c-2.283-0.964-4.628-1.607-7.232-2.057c-1.35-0.097-2.667-0.16-3.985-0.16
		C192.957,237.686,191.285,237.783,189.646,237.944L189.646,237.944z" fill="#1119ad" data-original="#c03000" class=""></path>
	<path style="" d="M281.861,246.333c0,0-0.097,0.065-0.129,0.065l-0.868,1.254c-0.386,0.997-0.772,2.024-1.029,3.086
		c-0.289,1.286-0.514,2.636-0.707,3.921c-0.707,5.753-0.997,11.699-1.254,17.453l-0.065,1.125l-0.225,5.433
		c-0.161,3.793-0.321,7.617-0.451,11.41c-0.225,5.593-0.418,11.218-0.578,16.81l-0.097,4.147l-0.129,4.147v1.543
		c-0.065,1.8-0.097,3.632,0,5.433l4.179-0.772l0.9-0.16c1.832-0.354,3.696-0.643,5.593-0.9c3.278-0.482,6.622-0.707,9.964-0.932
		c1.221-0.097,2.41-0.129,3.568-0.129c2.636,0,4.95,0.225,7.071,0.707c4.114,0.997,7.714,2.636,10.703,4.918
		c1.478,1.124,2.829,2.378,4.05,3.728c1.704,1.896,3.021,3.31,4.018,4.917c1.029,1.704,1.993,3.439,2.7,5.271
		c0.611,1.511,0.997,2.925,1.189,4.468c0.289,2.089,0.354,3.921,0.161,5.625c-0.129,1.543-0.289,3.118-0.932,4.693
		c-1.51,3.504-4.339,6.493-7.554,8.003c-1.543,0.707-2.443,1.124-3.342,1.383c-0.932,0.289-1.864,0.451-2.796,0.611
		c-1.543,0.257-3.15,0.418-4.725,0.418c-0.643,0-1.254-0.032-1.897-0.097c-2.153-0.161-4.371-0.354-6.493-0.772
		c-3.375-0.611-6.043-1.381-8.454-2.313c-2.089-0.835-3.536-1.383-4.853-2.153c-1.221-0.707-2.346-1.478-3.407-2.346l-1.092-0.9
		l-1.35-1.124c-1.672,0.707-3.053,1.511-4.404,2.378l-0.803,1.061c-0.097,0.321-0.192,0.643-0.289,0.964
		c-0.257,3.632,0.129,7.265,0.483,10.799l0.065,0.868c0.225,2.732,0.514,5.399,0.868,8.1c0.354,1.961,0.675,3.825,1.254,5.593
		l0.289,1.029c0.16,0.514,0.321,1.061,0.546,1.575l0.386,0.997l0.418,1.029c0.643,1.318,1.286,2.604,2.057,3.858
		c0.707,1.221,1.543,2.443,2.346,3.599c0.675,0.868,1.35,1.672,2.153,2.378c0.482,0.482,1.029,0.932,1.575,1.35
		c1.767,1.221,3.536,2.315,5.431,3.215l1.286,0.643l1.318,0.643c2.283,0.964,4.628,1.929,7.071,2.539
		c2.089,0.546,4.179,0.964,6.332,1.35l1.575,0.16l1.607,0.161c0.803,0.097,1.64,0.097,2.475,0.129
		c1.415,0.065,2.25,0.097,3.086,0.097c2.057,0,4.114-0.16,6.139-0.386c3.664-0.578,6.942-1.478,10.092-2.764
		c4.242-1.896,8.518-3.953,12.245-6.782c1.64-1.414,3.215-3.021,4.79-4.885c1.897-2.635,3.472-5.368,4.79-8.389
		c1.35-3.375,2.218-6.011,2.764-8.581l0.9-4.082c0.289-1.415,0.514-2.893,0.772-4.339l0.16-1.029
		c0.321-2.764,0.643-5.593,0.868-8.389c0.097-1.254,0.161-2.507,0.192-3.793l0.032-0.9c0.065-0.964,0.129-1.929,0.129-2.893
		l-0.032-1.543c-0.032-2.539-0.032-5.079-0.16-7.617c-0.129-3.086-0.354-6.171-0.74-9.224c-0.772-4.371-2.026-8.517-3.858-12.921
		c-0.803-1.767-1.8-3.472-3.021-5.174c-1.061-1.221-2.186-2.314-3.407-3.375c-1.961-1.446-3.472-2.443-5.014-3.182l-3.086-1.543
		c-1.993-0.835-3.696-1.543-5.4-1.993c-2.41-0.675-4.821-1.124-7.263-1.446c-0.643-0.032-1.318-0.065-1.961-0.065
		c-1.092,0-2.218,0.065-3.342,0.16c-1.543,0.225-3.053,0.482-4.628,0.803c-2.507,0.578-4.339,0.997-6.171,0.997
		c-0.835,0-1.64-0.354-2.378-0.74c-1.221-0.675-1.703-1.124-2.186-1.607c-0.161-0.225-0.354-0.514-0.546-0.74
		c-1.318-1.8-2.25-3.728-2.989-5.368c-0.707-1.575-1.383-3.215-1.864-4.885c-0.354-1.221-0.611-2.443-0.803-3.664
		c-0.192-1.157-0.225-2.024-0.065-2.924c0.032-0.578,0.161-1.157,0.451-1.704c0.16-0.578,0.449-1.029,0.9-1.478l0.546-0.675
		c0.386-0.354,0.835-0.643,1.254-0.932c1.254-0.546,2.732-1.189,4.371-1.51c3.31-0.707,6.943-1.124,11.121-1.254
		c4.596-0.16,9.192-0.289,13.789-0.289c2.378,0,4.725,0.032,7.103,0.129l3.278,0.129c2.186,0.097,4.371,0.192,6.557,0.257
		l1.767,0.065c1.672,0.097,3.342,0.16,5.014,0.16c0.74,0,1.478,0,2.218-0.032c0.483-0.9,0.578-1.381,0.707-1.864
		c0.257-3.053-0.065-6.107-0.418-8.903l-0.257-1.735c-0.321-2.378-0.675-4.757-1.092-7.103c-0.482-2.604-1.254-5.207-2.41-8.197
		c-0.161-0.451-0.192-1.061-0.065-1.672c-14.174-0.546-27.77-0.9-41.141-1.029l-4.34-0.039c-4.79-0.032-9.61-0.065-14.431-0.289
		l-1.864-0.065c-2.507-0.129-4.982-0.257-7.489-0.482c-1.575-0.129-3.118-0.257-4.661-0.418l-1.157-0.097
		c-1.157-0.097-2.314-0.225-3.472-0.225L281.861,246.333L281.861,246.333z" fill="#1119ad" data-original="#c03000" class=""></path>
</g>
<g>
	<path style="" d="M463.461,195.518l0.065,0.065l-0.321,0.16c-1.607,1.286-3.793,2.829-6.589,3.247l-2.475,0.354
		l-2.443,0.354c-4.436,0.675-8.871,1.286-13.339,1.8c-8.711,0.997-16.649,1.64-24.267,2.024l-6.139,0.321
		c-6.589,0.354-13.21,0.707-19.799,0.707c-8.678,0-17.357-0.032-26.067-0.16c-11.089-0.161-22.145-0.546-33.203-0.9
		c-6.974-0.225-13.917-0.482-20.893-0.675c-4.885-0.097-9.77-0.289-14.689-0.449l-11.861-0.418c-3.728-0.097-7.489-0.16-11.218-0.16
		c-4.821,0-9.61,0.097-14.4,0.225c-19.253,0.611-38.538,1.735-53.194,2.667c-9.097,0.578-18.192,1.157-27.288,1.51l-27.481,0.964
		c-5.271,0.225-10.575,0.451-15.846,0.675c-12.793,0.546-26.035,1.124-39.052,1.157l-2.635,0.032l-6.332-0.065
		c-2.7-0.032-5.433-0.065-8.132-0.065c-2.732,0-5.464,0.032-8.164,0.129c-1.607,0.097-3.246,0.129-4.853,0.16
		c-3.021,0.065-6.011,0.16-9,0.386l-6.525,0.578l-6.525,0.546l-2.378,0.386l-1.221,0.16c-0.803,15.46-1.735,30.855-2.764,46.22
		c-1.189,18.675-2.314,36.963-2.507,55.026c-0.161,17.453,0.065,36.159,0.74,57.179c0.257,7.232,0.546,14.496,0.835,21.728
		c0.451,11.153,0.932,22.306,1.157,33.492l0.16,7.36c0.097,6.139,0.225,12.245,0.482,18.385c0.354,7.971,0.997,16.424,2.024,26.645
		c0.129,0.835,0.321,1.607,0.546,2.378c1.124,0.74,2.283,1.286,3.472,1.832c5.271,2.153,10.832,3.889,16.489,5.207
		c2.861,0.74,5.721,1.414,8.646,1.897l4.211,0.675l4.918,0.835l1.286,0.16c7.297,0.997,14.817,1.993,22.274,2.539l4.147,0.289
		c3.053,0.225,6.139,0.451,9.224,0.546l4.179,0.129c2.635,0.129,5.304,0.225,7.938,0.225h1.318
		c8.581-0.129,17.132-0.386,25.681-0.772l3.472-0.16c6.525-0.289,13.017-0.578,19.51-0.578l3.599,0.032
		c10.446,0.161,20.924,0.451,31.338,0.74c8.711,0.257,17.389,0.483,26.067,0.675c8.454,0.192,16.906,0.354,25.36,0.514l6.332,0.129
		c4.821,0.097,9.643,0.192,14.496,0.192c1.929,0,3.889,0,5.817-0.032l8.003-0.16l8.164-0.161c3.342-0.097,6.717-0.386,10.061-0.675
		l4.596-0.354c6.589-0.482,13.146-1.221,19.702-1.929l6.943-0.74c8.1-0.868,16.2-1.64,24.3-2.41l5.336-0.483
		c2.378-4.147,5.014-8.935,7.168-13.853c1.672-4.21,3.118-8.549,4.242-12.921c1.189-4.436,2.378-9.192,3.053-13.949l0.868-6.268
		l0.482-3.536c0.321-4.532,0.643-8.935,0.707-13.371c0.065-4.307,0.065-8.518-0.321-12.631c-0.451-4.757-1.061-9.514-1.64-14.239
		c-0.514-4.115-0.997-8.228-1.414-12.374c-0.418-4.147-0.9-9.064,2.925-11.315c1.35-0.771,2.925-1.124,4.853-1.124
		c1.896,0,3.825,0.354,5.69,0.675l1.286,0.257c3.696,0.643,7.328,1.478,10.992,2.315l1.607,0.354
		c8.518,1.961,16.521,3.504,24.524,4.693c2.829,0.354,5.69,0.578,8.549,0.578c0.772,0,1.575,0,2.346-0.032
		c2.41-0.097,4.821-0.321,7.2-0.611c3.953-0.675,7.554-1.575,11.056-2.764l3.342-1.124l2.989-1.029
		c0.032-6.493-0.065-12.921-0.161-19.35c-0.354-17.838-1.575-35.902-2.796-53.388l-0.097-1.832
		c-0.578-8.357-0.997-16.714-1.383-25.103l-0.321-6.685c-0.321-7.071-0.611-14.142-1.221-21.214
		c-0.835-9.61-2.024-19.188-3.182-28.767c-0.997-8.068-1.735-15.846-2.475-23.624c-0.032-0.032-0.032-0.065-0.065-0.065
		l-0.032-0.032C463.492,195.485,463.492,195.518,463.461,195.518L463.461,195.518z M136.098,271.372
		c1.157-3.086,2.636-6.011,4.371-8.678c1.286-1.961,2.635-3.858,4.147-5.69c1.703-2.089,3.536-4.242,5.69-5.979
		c4.05-3.342,8.871-6.396,15.139-9.61c4.339-2.218,10.124-4.95,16.489-6.525c4.05-0.964,8.389-1.832,12.825-1.832
		c0.835,0,1.672,0.032,2.539,0.097c3.15,0.225,5.496,0.643,7.586,1.35c1.832,0.611,3.664,1.318,5.4,2.218
		c5.85,3.118,10.349,6.685,13.82,10.928c3.632,4.501,6.557,9.128,8.678,13.788c1.8,4.018,3.15,7.939,4.21,11.956l0.225,0.9
		c0.289,1.092,0.546,2.186,0.74,3.31c0.546,2.861,0.964,5.721,1.189,8.646c0.192,2.572,0.321,5.174,0.386,7.746
		c0.065,2.604,0.065,5.174-0.192,7.778c-0.257,2.604-0.546,5.239-1.092,7.778c-0.772,3.921-1.607,6.846-2.667,9.481
		c-0.964,2.41-1.993,4.79-3.182,7.103c-0.997,1.864-2.024,3.696-3.053,5.528l-0.868,1.543c-1.51,2.572-3.342,5.014-4.757,6.814
		c-1.189,1.543-2.443,3.118-3.761,4.596l-1.575,1.767c-0.997,1.092-1.961,2.218-3.021,3.246l-1.157,1.189
		c-2.732,2.764-5.496,5.56-8.421,8.164l-1.189,1.061c-1.35,1.221-2.7,2.443-4.114,3.567c-1.767,1.414-3.536,2.796-5.336,4.147
		c-1.64,1.254-3.278,2.475-4.982,3.599c-0.032,0-0.418,0.321-0.418,0.354c0,0.032-0.321,0.321-0.289,0.321h2.121
		c3.086,0,6.203-0.097,9.321-0.192c4.885-0.161,9.739-0.289,14.592-0.321c4.661,0,9.321,0,13.982-0.129l3.761-0.129
		c2.7-0.128,5.368-0.225,8.068-0.225l1.446,0.032c1.929,0.032,3.439,0.032,4.885,0.354c1.961,0.354,3.761,0.964,5.304,1.8
		c0.835,0.483,1.64,0.9,2.218,1.51c0.675,0.675,1.35,1.8,1.607,2.7c0.514,2.121,0.675,4.531,0.451,7.168l-0.097,1.8
		c-0.129,1.543-0.225,3.053-0.418,4.596c-0.257,2.443-0.546,4.853-0.868,7.265c-0.289,2.218-0.611,4.404-0.997,6.589l-0.16,0.868
		c-0.289,1.607-0.578,3.278-1.029,4.853c-0.418,1.414-0.835,2.829-1.478,4.147c-0.451,0.9-0.868,1.543-1.383,2.121
		c-0.546,0.611-1.189,1.35-1.961,1.8c-1.929,1.092-4.018,1.832-6.236,2.218c-2.089,0.354-4.21,0.643-6.332,0.803l-1.414,0.16
		c-0.964,0.097-1.929,0.225-2.861,0.225c-1.157,0.032-2.314,0.065-3.504,0.129l-1.929,0.032c-1.543,0-3.086-0.032-4.628-0.097
		c-3.696-0.032-7.392-0.354-11.056-0.675l-1.864-0.161c-6.396-0.546-12.825-1.478-19.028-2.41l-6.3-0.932l-0.835-0.097
		c-9.064-1.157-17.389-2.026-25.713-2.861c-1.929-0.192-3.472-0.386-4.95-0.835c-1.543-0.514-2.924-1.478-4.147-2.925
		c-0.835-0.932-1.318-2.089-1.767-3.118c-0.482-1.189-0.964-2.443-1.221-3.761c-0.386-1.864-0.707-3.761-0.868-5.657
		c-0.257-2.635-0.482-4.885-0.611-7.2c-0.129-2.186-0.225-4.371-0.289-6.557c-0.161-4.115-0.129-8.229-0.097-12.342
		c0-2.121,0.097-4.21,0.321-6.3l0.289-2.153c0.065-0.386,0.129-0.772,0.225-1.157c0.225-0.643,0.482-1.286,0.771-1.897l0.74-1.254
		c0.482-0.772,1.189-1.543,1.832-2.186l0.707-0.675c0.418-0.451,0.868-0.868,1.35-1.286c1.8-1.51,3.632-3.021,5.56-4.371
		c1.832-1.286,3.696-2.539,5.56-3.793l2.635-1.767l2.604-1.8c1.767-1.221,3.536-2.507,5.239-3.793l-0.675,0.546l0.964-0.772
		c1.061-0.835,2.089-1.64,3.086-2.507c1.51-1.318,2.989-2.667,4.436-4.05c2.829-2.764,5.722-5.914,8.614-9.289
		c1.221-1.64,2.378-3.31,3.375-5.142c0.835-1.575,1.64-3.182,2.378-4.821c1.929-4.853,3.278-9.835,4.018-14.882
		c0.129-1.64,0.257-3.215,0.225-4.79c-0.032-1.607-0.161-3.182-0.321-4.79c-0.097-0.772-0.257-1.575-0.482-2.346
		c-0.225-0.868-0.514-1.735-0.9-2.539l0.321,0.772c-0.321-0.643-0.643-1.254-1.061-1.832c-0.611-0.74-1.221-1.35-1.896-1.993
		c-0.514-0.321-1.029-0.611-1.543-0.868c-0.578-0.192-1.157-0.386-1.767-0.546c-1.029-0.097-2.024-0.16-3.021-0.16
		c-0.675,0-1.381,0.032-2.089,0.065c0.032,0.032,0.065,0.032,0.129,0.065c-0.772,0.032-1.51,0.192-2.218,0.418l-1.189,0.418
		c-2.764,1.221-5.304,2.764-7.392,4.082c-1.157,0.74-2.283,1.51-3.407,2.315c-1.51,1.221-3.021,2.443-4.339,3.793
		c-1.478,1.51-2.861,3.053-4.179,4.693c-1.318,1.704-2.539,3.504-3.696,5.336l-0.771,1.221l-0.772,1.221
		c-0.451,0.643-0.835,1.221-1.286,1.704c-0.451,0.514-0.932,0.868-1.543,1.286c-0.514,0.289-1.061,0.451-1.672,0.451
		c-1.704,0-3.182-1.189-3.728-1.704c-0.803-0.74-1.543-1.51-2.25-2.314c-1.061-1.221-2.089-2.41-3.086-3.664l-1.35-1.64l-2.7-3.278
		c-0.707-0.835-1.414-1.672-2.153-2.507c-0.707-0.803-1.446-1.64-2.121-2.507c-1.478-1.8-3.278-4.275-4.018-7.103
		c-0.321-1.318-0.032-2.636,0.289-3.761l0.354-0.804l0.354-0.835l0.482-1.061l0.065,0.032
		C133.591,274.2,134.909,272.657,136.098,271.372L136.098,271.372z M275.079,329.355c-0.643,0-1.318-0.16-1.929-0.514
		c-0.578-0.16-1.061-0.449-1.575-0.932l-0.772-0.803c-0.482-0.449-0.771-0.964-0.932-1.575c-0.354-0.675-0.514-1.381-0.546-2.121
		c-0.065-1.029-0.097-1.993-0.129-3.021c0-0.932,0.032-1.864,0.065-2.796c0.065-2.283,0.129-4.531,0.225-6.814
		c0.321-10.189,0.707-20.378,1.189-30.566c0.192-4.371,0.451-8.775,0.675-13.177c0.129-2.25,0.257-3.728,0.354-5.239l0.192-2.25
		c0.289-4.339,0.803-8.935,2.283-13.274c0.418-1.124,1.029-2.572,2.024-3.696c0.418-0.643,0.932-1.124,1.543-1.543l1.061-0.74
		c0.643-0.451,1.767-0.643,2.604-0.675c1.221,0,1.897,0.032,2.635,0.097l5.785,0.514c4.404,0.386,8.838,0.643,13.274,0.772
		c6.589,0.225,13.21,0.321,19.799,0.418l7.425,0.129c9.77,0.16,19.574,0.514,29.345,0.9c1.8,0.065,3.215,1.478,3.215,3.215
		c0.321,0.514,0.611,0.546,0.868,0.546c0.065,0,0.097,0,0.129,0c1.092,0,2.443,0.514,3.021,1.704c0.74,1.51,1.414,3.053,1.832,4.661
		c0.289,1.35,0.611,2.7,0.835,4.082c0.451,2.829,0.835,5.69,1.221,8.549l0.257,1.961l0.225,1.993
		c0.192,1.704,0.289,2.796,0.289,3.921c0.032,1.029,0.032,1.446,0,1.864c0,0.611-0.065,1.221-0.129,1.832
		c-0.097,0.835-0.225,1.64-0.386,2.443c-0.257,0.707-0.546,1.414-0.835,2.089c-0.321,0.675-0.707,1.221-1.189,1.767
		c-0.451,0.451-0.932,0.868-1.414,1.221c-0.514,0.225-1.061,0.451-1.607,0.643c-1.189,0.192-2.378,0.289-3.599,0.289l-1.511,0.065
		v-0.097l-1.929-0.065l-1.929-0.097l-3.664-0.192l-3.664-0.192c-4.436-0.225-8.871-0.386-13.339-0.386h-2.313
		c-6.171,0.065-11.315,0.289-16.232,0.74c-1.897,0.354-3.696,0.707-5.431,1.35c0.451,2.636,1.286,5.047,2.475,7.906l-0.354-0.868
		c0.835,1.929,1.64,3.407,2.604,4.853c1.414-0.097,2.604-0.354,3.825-0.611c1.543-0.321,2.732-0.514,3.953-0.675
		c1.64-0.225,2.893-0.418,4.115-0.418c2.378,0.065,4.499,0.289,6.525,0.707l1.029,0.192c1.157,0.257,2.314,0.482,3.407,0.835
		c2.218,0.675,4.371,1.543,6.493,2.539c1.061,0.514,1.8,0.835,2.507,1.221c3.15,1.767,6.203,3.536,8.775,6.011
		c2.25,2.153,3.728,3.921,4.79,5.753c1.061,1.8,1.929,3.664,2.7,5.593c0.803,2.121,1.543,4.275,2.186,6.46
		c0.997,3.31,1.703,6.846,2.057,10.799c0.192,2.186,0.354,4.371,0.482,6.557c0.161,2.378,0.192,4.79,0.225,7.2
		c0.065,1.543,0.032,3.086,0,4.628l-0.065,1.832c-0.097,4.21-0.418,8.324-0.997,12.214l-0.129,1.029
		c-0.321,1.993-0.611,3.953-1.029,5.946c-0.803,4.371-1.897,8.228-3.31,11.828c-1.221,3.021-2.443,5.496-3.825,7.554
		c-1.672,2.539-3.15,4.468-4.693,6.043c-2.764,2.796-5.946,5.174-9.707,7.232c-2.347,1.286-4.79,2.507-7.265,3.536
		c-4.628,1.929-9.481,3.053-14.368,3.31c-1.286,0.097-2.539,0.129-3.825,0.129c-1.414,0-2.861-0.032-4.275-0.129
		c-0.9-0.065-1.767-0.129-2.636-0.225c-1.64-0.161-2.604-0.257-3.567-0.451l-1.929-0.354l-1.993-0.354
		c-1.929-0.354-3.985-0.964-6.331-1.832c-2.218-0.868-4.371-1.8-6.493-2.861c-1.929-0.964-3.793-1.897-5.464-3.15
		c-1.157-0.803-2.121-1.511-2.956-2.25c-0.997-0.9-1.864-1.8-2.732-2.829c-1.64-1.929-2.925-4.147-4.339-6.654
		c-0.386-0.74-0.772-1.51-1.124-2.283l-0.354-0.772c-0.225-0.514-0.451-1.092-0.643-1.64c-0.354-0.9-0.483-1.254-0.611-1.607
		l-0.354-1.189c-0.451-1.446-0.9-2.893-1.124-4.339c-0.386-2.315-0.772-4.628-0.964-6.974c-0.225-2.218-0.418-4.436-0.611-6.654
		l-0.289-3.536c-0.225-2.443-0.386-4.082-0.225-5.69c0.097-1.575,0.192-2.507,0.418-3.278c0.192-0.707,0.386-1.254,0.643-1.735
		c0.225-0.418,0.483-0.868,0.74-1.286c0.74-1.254,2.153-2.153,3.568-2.956c1.607-0.868,3.761-2.089,5.914-2.089
		c0.546,0,1.029,0.065,1.51,0.192c0.964,0.289,1.767,0.997,2.443,1.64l0.74,0.675l1.029,0.9c1.318,0.932,2.7,1.704,4.114,2.346
		c1.864,0.74,3.728,1.318,5.657,1.8c1.832,0.483,3.696,0.803,5.593,1.092c1.061,0.097,1.478,0.161,1.929,0.192
		c1.286,0.065,2.572,0.129,3.825,0.129c1.061,0,2.121-0.032,3.182-0.097c0.675-0.097,1.35-0.257,1.993-0.386
		c0.9-0.192,1.575-0.418,2.25-0.675c1.286-0.675,2.024-1.093,2.764-1.607c0.772-0.643,1.414-1.286,2.024-2.057
		c0.418-0.643,0.772-1.254,1.092-1.897c0.129-0.386,0.257-0.803,0.321-1.254c0.225-1.961,0.257-3.858,0.097-5.753
		c-0.257-1.124-0.578-2.186-0.964-3.247c-0.611-1.35-0.932-1.992-1.286-2.604c-0.451-0.772-0.932-1.446-1.446-2.186
		c-1.832-2.218-3.599-4.082-5.431-5.657c-1.414-0.964-2.861-1.767-4.404-2.475c-1.672-0.675-3.439-1.157-5.785-1.575l0.9,0.289
		c-1.575-0.354-3.15-0.483-4.725-0.483c-0.835,0-1.703,0.032-2.572,0.097c-1.35,0.129-2.667,0.225-4.018,0.321
		c-1.672,0.16-3.342,0.354-5.014,0.546c-2.764,0.482-4.822,0.803-6.846,1.318l-1.094,0.225c-1.157,0.289-2.346,0.578-3.536,0.772
		c-0.675,0.16-1.383,0.225-2.089,0.225v0.065L275.079,329.355L275.079,329.355z M56.323,302.934c-0.932-0.546-1.221-1.735-0.707-2.7
		c1.767-3.182,3.568-6.331,5.464-9.418l1.478-2.378c1.124-1.832,2.25-3.664,3.439-5.496c4.564-7.039,9.16-14.046,13.757-21.053
		c0.418-0.611,1.093-0.964,1.767-0.964c0.321,0,0.643,0.097,0.964,0.257c0.451,0.289,0.803,0.771,0.932,1.286
		c0.097,0.514,0.032,0.997-0.225,1.414c-3.375,5.079-6.685,10.189-10.029,15.3l-3.761,5.785c-1.093,1.672-2.121,3.375-3.182,5.079
		l-1.703,2.796c-1.929,3.053-3.728,6.236-5.464,9.386c-0.354,0.611-0.997,0.964-1.703,0.964
		C56.966,303.191,56.644,303.095,56.323,302.934L56.323,302.934z M60.533,328.519c-0.932-0.546-1.221-1.672-0.707-2.7
		c1.415-2.861,2.925-5.625,4.5-8.389l0.514-0.868c0.418-0.772,0.868-1.543,1.35-2.314l2.636-3.985
		c1.35-2.057,2.796-4.05,4.242-6.011l6.428-8.903c0.354-0.418,0.643-0.772,1.221-0.932c0.161,0,0.321,0,0.449,0
		c0.514,0,0.771,0.097,1.061,0.225c0.482,0.289,0.835,0.803,0.964,1.381c0.097,0.483,0,0.964-0.257,1.286l-3.472,4.79l-3.439,4.757
		l-2.572,3.568l-1.029,1.51l-0.611,0.964l-0.643,0.964l-0.997,1.543l-0.803,1.221c-0.643,1.157-1.318,2.315-1.993,3.472
		c-1.446,2.539-2.829,5.11-4.147,7.714c-0.289,0.611-0.932,0.964-1.672,0.964C61.176,328.776,60.822,328.68,60.533,328.519
		L60.533,328.519z M61.368,367.378c-0.675-0.192-1.221-0.643-1.575-1.221c-0.321-0.514-0.546-1.381-0.289-2.024
		C65,350.376,71.3,337.295,76.731,326.27c0.418-0.803,1.286-1.286,2.283-1.286c0.449,0,0.9,0.097,1.318,0.354
		c1.254,0.74,1.64,2.218,0.932,3.599c-1.832,3.761-3.664,7.522-5.464,11.313l-0.74,1.446c-0.803,1.704-1.64,3.407-2.41,5.142
		c-2.25,5.014-4.501,10.092-6.653,15.139l-1.414,3.536c-0.225,0.578-0.514,1.157-1.189,1.575c-0.449,0.225-0.932,0.354-1.381,0.354
		v0.097L61.368,367.378L61.368,367.378z M59.826,395.694c-0.514-0.161-0.997-0.546-1.286-0.997
		c-0.257-0.449-0.418-1.157-0.225-1.672l0.643-1.575c0.578-1.446,1.189-2.893,1.8-4.307c0.74-1.672,1.478-3.342,2.25-4.982
		c0.354-0.835,0.772-1.607,1.189-2.378l0.997-1.961l1.64-3.246c0.932-1.8,1.864-3.567,2.829-5.304l1.092-2.026l2.829-5.239
		l2.829-5.271c0.354-0.643,1.061-1.029,1.864-1.029c0.386,0,0.74,0.097,1.092,0.257c0.997,0.611,1.35,1.896,0.771,2.956l-3.856,7.2
		l-1.8,3.342l-1.157,2.153c-0.9,1.64-1.8,3.246-2.604,4.917l-0.578,1.092l-1.672,3.278l-0.611,1.157
		c-0.321,0.611-0.643,1.254-0.932,1.896l-0.835,1.8l-2.25,5.079l-0.611,1.478l-0.771,1.832c-0.225,0.578-0.482,0.997-0.997,1.318
		c-0.321,0.161-0.707,0.257-1.092,0.257v0.097L59.826,395.694L59.826,395.694z M62.333,408.23c-0.482-0.129-0.932-0.482-1.189-0.9
		s-0.386-1.092-0.192-1.543c1.478-3.536,2.893-7.135,4.21-10.735c0.225-0.611,0.482-0.964,0.932-1.221
		c0.289-0.161,0.611-0.257,0.997-0.257c1.029,0.225,1.51,0.611,1.767,1.124c0.257,0.451,0.289,0.964,0.16,1.383
		c-1.35,3.599-2.732,7.2-4.242,10.735c-0.225,0.546-0.449,0.9-0.9,1.221c-0.321,0.16-0.675,0.257-1.029,0.257v0.065L62.333,408.23
		L62.333,408.23z M94.571,465.989c-0.546-0.16-1.029-0.578-1.286-1.092c-0.225-0.451-0.257-0.932-0.129-1.35
		c0.707-1.929,1.414-3.858,2.218-5.722l0.74-1.672l1.029-2.41c0.611-1.446,1.254-2.925,1.897-4.371l7.425-16.714
		c0.225-0.386,0.707-0.771,1.221-0.932c0.161,0,0.321,0,0.451,0c0.546,0,0.803,0.097,1.061,0.225c0.418,0.257,0.771,0.707,0.9,1.189
		c0.129,0.546,0.032,0.997-0.192,1.51c-3.858,8.646-7.714,17.292-11.442,25.97l-0.74,1.993l-0.74,1.961
		c-0.225,0.578-0.514,0.932-0.9,1.189c-0.321,0.16-0.675,0.257-1.029,0.257v0.097L94.571,465.989L94.571,465.989z M254.797,470.939
		c-1.254-0.354-2.507-1.704-2.346-3.086c0.611-4.564,1.383-9.064,2.315-13.499c0.868-4.05,1.864-8.068,2.861-12.053l0.418-1.8
		c0.386-1.478,1.8-2.507,3.375-2.507c0.321,0,0.578,0.032,0.835,0.097c1.8,0.514,2.861,2.346,2.41,4.21
		c-2.186,8.871-4.307,17.581-5.979,26.421c-0.257,1.446-1.8,2.283-3.15,2.283v0.097L254.797,470.939L254.797,470.939z
		 M112.442,467.114c-0.578-0.16-1.092-0.578-1.414-1.125c-0.289-0.514-0.386-1.124-0.225-1.672l0.418-1.383
		c0.9-2.956,1.767-5.946,2.796-8.871l1.446-4.05l2.893-8.1c0.257-0.707,0.611-1.157,1.124-1.478
		c0.354-0.192,0.803-0.289,1.286-0.289c1.254,0.225,1.832,0.74,2.153,1.381c0.289,0.546,0.354,1.157,0.16,1.672
		c-2.7,7.392-5.336,14.817-7.843,22.306c-0.321,0.997-1.221,1.672-2.186,1.672v0.097L112.442,467.114L112.442,467.114z
		 M162.389,465.379c-0.803-0.225-1.607-1.092-1.478-1.993c0.707-5.721,1.767-11.41,2.796-17.132l0.707-3.858
		c0.192-0.997,1.221-1.51,2.089-1.51c1.061,0.192,1.51,0.546,1.832,1.029c0.257,0.482,0.321,0.964,0.16,1.64l-1.221,6.685
		c-0.835,4.564-1.704,9.129-2.443,13.725c-0.032,0.451-0.482,0.932-0.9,1.189c-0.321,0.161-0.675,0.257-1.029,0.257v0.097
		L162.389,465.379L162.389,465.379z M139.666,466.985c-0.675-0.192-1.189-0.611-1.543-1.189c-0.321-0.578-0.418-1.189-0.257-2.024
		c1.124-6.268,2.378-12.567,3.632-18.867c0.289-1.286,1.607-2.024,2.732-2.024c2.121,0.482,2.925,1.929,2.572,3.472
		c-1.286,6.268-2.636,12.536-3.985,18.802c-0.225,1.093-1.318,1.896-2.507,1.896v0.097L139.666,466.985L139.666,466.985z
		 M274.018,470.328c-0.514-0.16-0.964-0.514-1.254-0.964c-0.289-0.546-0.257-1.061-0.16-1.575
		c1.254-7.457,2.732-14.882,4.242-22.274c0.192-0.9,1.092-1.575,2.057-1.575c1.832,0.418,2.283,1.672,2.057,2.732
		c-1.543,7.36-3.086,14.817-4.468,22.242c-0.16,0.9-1.157,1.478-1.992,1.478v0.065L274.018,470.328L274.018,470.328z
		 M182.479,463.61c-0.257-4.275-0.578-8.581-0.9-12.856c-0.032-0.483,0.129-0.932,0.482-1.318c0.386-0.418,0.964-0.643,1.478-0.643
		c1.092,0,1.896,0.803,1.961,1.961c0.321,4.275,0.643,8.581,0.9,12.856c0.032,0.482-0.129,0.932-0.482,1.318
		c-0.386,0.418-0.964,0.643-1.478,0.643C183.379,465.571,182.542,464.736,182.479,463.61L182.479,463.61z M298.253,464.896
		c-1.029,0-1.929-0.675-2.186-1.64l-0.225-0.868c-0.418-1.64-0.835-3.278-1.383-4.917c-0.418-1.318-0.835-2.636-1.286-3.921
		c-0.16-0.514-0.097-1.061,0.16-1.607c0.321-0.578,0.835-0.997,1.446-1.189c0.097,0,0.161,0,0.257,0
		c1.381,0,2.153,0.675,2.507,1.607c0.514,1.51,0.964,3.053,1.446,4.564c0.546,1.704,0.997,3.439,1.414,5.142
		c0.289,1.189-0.386,2.443-1.575,2.764l-0.578,0.161v-0.097H298.253z" fill="#ffffff" data-original="#ffffff" class=""></path>
	<path style="" d="M475.256,402.767c-0.032,0-0.065,0.032-0.065,0.065c-0.707,1.414-1.414,2.829-2.153,4.242
		c-1.961,3.599-4.179,6.879-6.911,10.799l-1.993,2.861c-1.767,2.572-3.504,5.142-5.336,7.682l-2.315,3.118l-2.283,3.118
		c-1.061,1.478-2.218,2.893-3.375,4.307l-1.543,1.896c-2.315,2.861-4.853,5.528-7.36,8.164l-1.543,1.607
		c-2.829,2.956-5.69,5.882-8.614,8.775l-1.575,1.575c-1.029,1.061-2.089,2.089-3.182,3.086l-5.946,5.4
		c-1.06,0.997-2.218,1.929-3.342,2.861l-1.157,0.932l-1.993,1.704c-1.092,0.9-2.153,1.8-3.278,2.667l-4.79,3.696l-4.404,3.407
		l0.997,0.032c8.871-1.254,18.064-2.572,27.128-3.407c4.596-0.418,9.289-0.546,13.917-0.611l4.115-0.065
		c4.082-0.032,8.26-0.065,12.342-0.451c1.318-0.225,2.604-0.546,3.858-0.9c0.321-0.16,0.611-0.354,0.9-0.546
		c0.514-0.449,0.964-0.9,1.414-1.414c0.9-1.414,1.64-2.829,2.346-4.339c2.089-5.528,3.053-11.313,3.761-16.232
		c0.932-7.649,1.318-15.46,1.703-23.046l0.225-3.953c0.257-5.336,0.386-10.703,0.451-16.038l0.097-10.896
		c0-0.032-0.032-0.097-0.065-0.097h-0.03V402.767z" fill="#ffffff" data-original="#ffffff" class=""></path>
</g>
<path style="" d="M399.012,383.097c0,0.032-0.032,0.065-0.032,0.065c0.997,6.3,1.961,12.567,2.796,18.867
	c0.482,3.536,0.932,7.135,1.124,10.735c0.129,2.089,0.257,4.178,0.354,6.236c0.097,1.221,0.065,2.475,0,3.696l-0.032,1.221
	c0,3.921-0.225,7.778-0.482,11.699c-0.225,2.989-0.611,5.785-0.997,8.549l-0.354,2.41c-1.157,8.743-2.829,16.392-5.079,23.303
	c-1.029,3.215-2.186,6.428-3.504,9.546l1.864-1.254l-1.124,0.675c0.882-0.519,1.68-1.121,2.479-1.724l2.053-1.588l1.864-1.414
	v-0.032h0.032l0.514-0.386l2.443-1.896l1.061-0.835l0.611-0.611l0.032,0.065l2.024-1.607c2.956-2.41,5.914-4.853,8.807-7.392
	c3.953-3.504,7.843-7.006,11.571-10.703c3.567-3.536,7.135-7.135,10.672-10.735c3.15-3.215,6.074-6.685,8.871-10.061
	c5.11-6.749,9.707-12.985,14.239-19.221c2.089-2.829,4.018-5.85,6.074-9.546c1.575-2.829,2.956-5.785,4.242-8.743
	c0.514-1.35,0.868-2.315,1.221-3.342c-2.829,0.643-5.625,1.254-8.421,1.672c-4.147,0.675-7.811,1.029-11.218,1.092l-1.607,0.032
	l-2.539,0.065c-0.964,0-1.896-0.032-2.861-0.129c-2.315-0.16-4.596-0.482-6.911-0.835l-1.092-0.16
	c-7.263-1.061-14.56-2.604-20.056-3.825l-4.018-0.9c-4.821-1.061-9.643-2.153-14.56-3.021
	C399.044,383.064,399.044,383.097,399.012,383.097L399.012,383.097z M396.026,477.123l-0.358,0.276c0,0,0.269-0.207,0.527-0.404
	C396.139,477.038,396.083,477.08,396.026,477.123L396.026,477.123z M396.196,476.995c0.134-0.102,0.27-0.203,0.405-0.303
	C396.515,476.754,396.358,476.873,396.196,476.995L396.196,476.995z" fill="#003a87" data-original="#bebebe" class=""></path>
<g>
	<path style="" d="M337.364,12.439c-1.286,0.225-2.475,0.514-3.696,0.9c-0.257,0.129-0.514,0.289-0.772,0.451
		c-0.675,0.997-1.157,1.864-1.575,2.796c-1.896,5.174-2.796,10.799-3.696,16.2l-0.483,4.082c-0.354,3.342-0.707,6.654-0.868,9.996
		c-0.225,5.528-0.354,11.024-0.449,16.584c0,1.543-0.803,3.053-2.121,3.889l-0.257,3.921l-0.225,3.858
		c-0.354,6.363-0.451,12.76-0.514,19.156v2.315c0,2.314,0,4.661,0.032,6.974l0.065,2.121c0.065,2.796,0.129,5.625,0.418,8.389
		c0.097,0.546,0.225,1.092,0.418,1.607c2.25,0.9,4.178,1.221,6.139,1.575c8.421,1.061,16.649,2.024,24.941,2.024
		c3.021,0,6.074-0.129,9.097-0.418c0.675-0.16,1.254-0.321,1.864-0.514c0,0,0.675-0.514,0.675-0.546
		c0.578-0.835,1.092-1.735,1.543-2.635c0.964-2.572,1.607-5.304,2.089-8.421c0.578-5.174,0.643-10.478,0.74-15.621l0.032-0.9
		c0.032-2.989,0.065-6.01-0.032-9c-0.192-7.006-0.451-13.982-0.868-20.956l-0.482-7.971c-0.257-4.05-0.514-8.132-0.707-12.214
		l-0.129-2.057c-0.257-5.85-0.546-11.699-1.061-17.581c-0.225-0.997-0.418-1.929-0.675-2.893c-0.675-0.418-1.318-0.74-1.993-1.06
		c-4.757-1.703-9.9-2.475-14.849-3.182c-4.05-0.546-7.135-0.932-10.286-0.932C338.907,12.374,338.135,12.407,337.364,12.439
		L337.364,12.439z M339.421,55.863c-0.451-0.257-0.772-0.74-0.9-1.254c-0.129-0.514-0.065-1.029,0.192-1.446
		c0.932-1.478,1.864-2.925,2.829-4.339l0.803-1.093l0.772-1.093l2.732-3.599l2.732-3.568c0.354-0.451,0.643-0.803,1.221-0.964
		c0.16,0,0.321,0,0.449,0c0.514,0,0.803,0.097,1.061,0.225c0.418,0.257,0.771,0.707,0.9,1.189c0.097,0.451,0.097,1.124-0.192,1.478
		l-2.764,3.599l-2.732,3.599c-1.575,2.121-2.989,4.339-4.371,6.557c-0.386,0.611-1.029,0.964-1.735,0.964
		C340.064,56.119,339.742,56.023,339.421,55.863L339.421,55.863z M337.107,78.586c-0.451-0.257-0.803-0.707-0.932-1.254
		c-0.129-0.514-0.032-1.029,0.225-1.478c4.082-6.493,8.1-13.05,12.053-19.639c0.354-0.578,1.061-0.964,1.735-0.964
		c0.354,0,0.675,0.097,0.964,0.257c0.451,0.257,0.772,0.707,0.9,1.221c0.129,0.514,0.065,1.029-0.192,1.478
		c-3.953,6.622-7.938,13.177-12.053,19.67c-0.386,0.578-1.061,0.964-1.735,0.964C337.718,78.844,337.397,78.747,337.107,78.586
		L337.107,78.586z" fill="#ea9a00" data-original="#ea9a00" class=""></path>
	<path style="" d="M123.301,23.785c-1.51,0.257-2.989,0.578-4.436,0.997l-0.868,0.74
		c-1.286,3.599-1.735,7.006-2.218,10.286c-0.611,6.653-1.124,12.825-1.478,19.028c0.16,8.1,0.354,16.2,0.611,24.331
		c0.192,5.946,0.386,11.861,0.643,17.807l0.16,3.567c0.192,5.014,0.354,10.029,0.9,15.011c0.418,2.186,0.964,4.275,1.703,6.332
		l0.514,0.932c0.868,0.643,1.318,0.9,1.8,1.157c1.061,0.354,2.121,0.643,3.215,0.9c1.157,0.065,2.25,0.097,3.375,0.097
		c1.8,0,3.567-0.097,5.368-0.161c1.767-0.065,3.536-0.129,5.304-0.129c3.278,0,6.557,0.065,9.803,0.192
		c1.672,0.065,3.342,0.097,5.014,0.097c4.018,0,7.811-0.225,11.604-0.611c0.032-0.032,1.543-0.321,1.575-0.321l0.482-0.868
		c0.74-1.993,1.286-4.114,1.735-6.749c0.74-6.46,1.061-13.114,0.932-20.41c-0.16-6.782-0.611-13.531-1.124-20.282
		c-0.386-5.047-0.868-10.092-1.35-15.139l-0.289-2.989c-0.578-6.011-1.157-12.021-1.897-18.032c-0.354-2.41-0.803-5.174-1.8-7.778
		c-0.578-0.803-0.997-1.221-1.478-1.607c-1.414-0.932-2.893-1.672-4.436-2.378c-4.501-1.767-9.386-3.086-14.56-3.921
		c-3.375-0.321-6.814-0.546-10.221-0.546C129.022,23.335,126.13,23.495,123.301,23.785L123.301,23.785z M120.602,67.402
		c-0.546-0.161-1.029-0.578-1.286-1.093c-0.225-0.449-0.257-0.932-0.129-1.35c0.643-1.735,1.35-3.439,2.218-5.11
		c0.451-0.868,0.932-1.767,1.415-2.636l1.221-2.25l1.221-2.25l4.179-7.554l2.667-4.885c0.321-0.578,0.997-0.964,1.735-0.964
		c0.354,0,0.707,0.065,1.029,0.257c0.932,0.546,1.254,1.8,0.707,2.764l-3.342,6.011l-3.342,6.043
		c-1.832,3.247-3.664,6.493-5.239,9.867l-0.611,1.735c-0.354,0.9-1.092,1.478-1.929,1.478v0.065L120.602,67.402L120.602,67.402z
		 M123.558,83.632c-0.932-0.578-1.221-1.735-0.707-2.732c1.961-3.825,4.082-7.554,6.203-11.281c1.864-3.279,3.761-6.557,5.657-9.835
		l1.189-2.089c0.321-0.578,1.029-0.964,1.735-0.964c0.354,0,0.675,0.097,0.997,0.257c0.9,0.546,1.221,1.767,0.707,2.7l-2.604,4.531
		c-1.446,2.443-2.861,4.917-4.242,7.392l-0.514,0.868c-1.929,3.472-3.889,6.911-5.69,10.446c-0.321,0.578-0.964,0.964-1.735,0.964
		C124.201,83.889,123.847,83.794,123.558,83.632L123.558,83.632z M127.544,109.186c-0.514-0.16-0.997-0.578-1.254-1.092
		c-0.225-0.451-0.257-0.932-0.129-1.35c1.254-3.472,2.443-6.974,3.599-10.446l1.446-4.307l2.861-8.454l2.829-8.421
		c0.289-0.9,1.061-1.446,1.929-1.446c0.997,0.192,1.478,0.578,1.735,1.093c0.257,0.449,0.289,0.932,0.16,1.381l-2.861,8.454
		l-2.829,8.421l-1.478,4.307c-1.157,3.504-2.315,7.006-3.568,10.446c-0.354,0.9-1.092,1.478-1.929,1.478v0.065L127.544,109.186
		L127.544,109.186z" fill="#ea9a00" data-original="#ea9a00" class=""></path>
</g>
<g>
	<path style="" d="M493.674,355.293c-0.451-9.739-0.997-19.413-1.672-29.12c-0.578-8.711-1.478-17.389-2.121-26.099
		c-0.643-9.097-1.286-18.224-1.767-27.353c-0.514-9.546-0.997-19.061-1.832-28.574c-0.772-8.807-1.992-17.549-2.893-26.324
		c-1.029-9.739-1.897-19.51-2.764-29.313c-1.575-18.16-2.925-36.353-3.696-54.609c-0.386-8.967-0.675-17.999-1.189-26.967
		c-0.546-9.643-0.932-19.318-2.218-28.863c-0.74-5.368-3.31-10.382-7.811-13.467c-3.632-2.475-7.843-3.407-12.118-3.985
		c-3.15-0.449-6.3-0.611-9.418-0.611c-1.8,0-3.599,0.065-5.399,0.129c-8.389,0.289-16.714,0.997-25.038,1.864
		c-4.371,0.418-8.743,0.74-13.146,1.029c-1.864,0.161-3.728,0.257-5.593,0.386c-2.764,0.161-5.496,0.192-8.132,1.157
		c-1.522,0.555-2.839,1.383-3.877,2.489c-0.085-1.503-0.101-3.012-0.21-4.513C382.2,53.774,381.59,45,381.074,36.193
		c-0.257-4.693-0.546-9.418-0.835-14.11c-0.225-2.989-0.514-6.011-1.35-8.871c-1.735-5.946-8.068-8.646-13.499-10.189
		c-4.499-1.286-9.192-1.897-13.788-2.475C348.999,0.225,346.364,0,343.728,0c-1.864,0-3.696,0.129-5.56,0.386
		c-1.864,0.289-3.632,0.707-5.431,1.286c-1.254,0.418-2.475,1.029-3.696,1.607c-1.157,0.546-2.186,1.51-3.182,2.283
		c-0.707,0.546-1.446,1.543-1.897,2.218c-0.932,1.414-1.64,2.893-2.283,4.468c-1.157,2.956-1.993,6.043-2.636,9.129
		c-0.868,0.964-1.189,2.026-1.318,3.246c-1.124,11.828-2.089,23.688-3.086,35.548c-0.165,1.947-0.238,3.92-0.345,5.882
		c-9.723,1.219-19.426,2.512-29.124,3.856c0.514-0.065,0.997-0.128,1.478-0.192c-8.678,1.157-17.389,2.475-26.164,3.118
		c-8.838,0.611-17.71,0.803-26.581,0.803c-8.743,0-17.453-0.065-26.196-0.161c-4.242-0.032-8.486-0.161-12.696-0.418
		c-3.889-0.225-7.778-0.675-11.667-0.932c-0.731-0.053-1.461-0.037-2.192-0.053c-0.927-8.499-1.878-16.999-2.987-25.468
		c-0.578-4.564-1.189-9.128-1.961-13.66c-0.16-0.997-0.386-1.961-0.611-2.956c-0.611-2.732-1.832-5.207-3.536-7.392
		c-2.443-3.021-5.721-4.982-9.128-6.749c-3.889-2.057-8.228-3.31-12.471-4.531c-2.283-0.643-4.693-0.932-7.039-1.221
		c-2.121-0.289-4.21-0.514-6.332-0.578c-1.543-0.065-3.053-0.097-4.596-0.097c-2.186,0-4.404,0.065-6.557,0.289
		c-2.378,0.257-4.725,0.643-7.071,1.221c-1.543,0.386-3.021,0.9-4.499,1.575c-1.061,0.482-1.961,1.029-2.893,1.703
		c-1.543,1.157-2.636,2.378-3.728,3.953c-0.74,1.124-1.157,2.572-1.672,3.825c-0.418,1.061-0.643,2.218-0.868,3.375
		c-1.318,0.964-2.153,2.539-2.121,4.275c0.097,5.593,0.225,11.153,0.321,16.746c-0.032,1.735-0.065,3.472-0.065,5.207
		c0,2.218,0,4.436,0.032,6.622c0,0.675,0.129,1.318,0.354,1.897c0.167,6.509,0.416,13.019,0.633,19.528
		c-8.725,0.651-17.451,1.238-26.148,1.942c-9.353,0.771-18.61,2.378-27.899,3.696c-1.929,0.257-3.825,0.514-5.753,0.803
		c-1.64,0.257-3.215,0.578-4.757,1.092c-3.536,1.189-6.107,3.793-7.746,7.071c-1.864,3.728-2.636,7.875-3.278,11.956
		c-0.482,2.925-0.932,5.85-1.286,8.807c-1.124,8.871-1.703,17.87-2.186,26.838c-0.964,18.546-1.286,37.123-1.864,55.701
		c-0.578,18.964-1.478,37.895-2.764,56.858c-1.221,18.353-2.25,36.706-2.861,55.09c-0.578,17.999-0.611,35.999-0.386,53.966
		c0.225,18.16,0.74,36.32,0.803,54.48c0.065,9.74,0.065,19.445,0.16,29.153c0.065,8.678,0.611,17.324,1.414,25.938
		c0.321,3.375,0.643,6.814,1.414,10.124c0.707,2.989,2.41,5.496,4.436,7.746c2.507,2.796,6.589,4.179,9.996,5.464
		c4.757,1.767,9.643,3.053,14.528,4.404c8.711,2.378,17.839,3.504,26.775,4.628c18.738,2.378,37.477,3.761,56.344,3.632
		c9.418-0.097,18.835-0.514,28.285-0.803c9.257-0.321,18.513-0.032,27.738,0.257c9.224,0.289,18.449,0.803,27.642,1.189
		c8.357,0.354,16.681,0.611,25.006,0.9c9.481,0.354,18.932,0.803,28.381,1.029c5.239,0.097,10.478,0.225,15.685,0.354
		c4.596,0.129,9.192-0.032,13.788-0.065c17.646-0.097,35.291-2.378,52.873-3.889c18.739-1.64,37.542-2.893,56.216-5.304
		c4.725-0.611,9.481-1.221,14.206-1.767c4.436-0.482,8.903-0.675,13.371-0.835c4.21-0.192,8.486-0.097,12.696-0.065
		c2.475,0,4.918,0.032,7.392,0c1.832-0.032,3.632-0.129,5.464-0.321c3.278-0.321,6.622-0.803,9.675-2.089
		c3.246-1.35,5.979-3.15,8.518-5.625c2.153-2.121,3.889-4.79,5.304-7.425c3.246-6.043,4.917-12.76,5.979-19.445
		c1.414-8.903,2.121-17.838,2.507-26.838c0.386-8.967,0.675-17.935,0.675-26.935C494.67,392.641,494.51,373.934,493.674,355.293z
		 M472.359,389.074c-0.354,1.029-0.707,1.993-1.221,3.342c-1.286,2.956-2.667,5.914-4.242,8.743
		c-2.057,3.696-3.985,6.717-6.074,9.546c-4.532,6.236-9.128,12.471-14.239,19.221c-2.796,3.375-5.722,6.846-8.871,10.061
		c-3.536,3.599-7.103,7.2-10.672,10.735c-3.728,3.696-7.617,7.2-11.571,10.703c-2.893,2.539-5.85,4.982-8.807,7.392l-2.024,1.607
		l-0.032-0.065c-0.032,0.032-0.065,0.065-0.097,0.097l-0.032,0.032l-0.482,0.482l-1.061,0.835l-2.443,1.897l-0.514,0.386h-0.032
		v0.032l-1.864,1.415l-1.864,1.414l-0.032,0.032c-0.032,0.065-0.097,0.097-0.129,0.129c-0.225,0.161-0.386,0.289-0.386,0.289
		l0.354-0.289c-0.584,0.444-1.168,0.887-1.778,1.295c-0.039,0.031-0.077,0.061-0.115,0.092l0.542-0.325l-0.855,0.574
		c-0.068,0.054-0.138,0.108-0.207,0.165c0.045-0.041,0.093-0.08,0.139-0.12l-0.194,0.13c-0.227,0.176-0.453,0.352-0.679,0.528
		c0.014-0.035,0.032-0.068,0.048-0.103l-0.117,0.079c1.318-3.118,2.475-6.332,3.504-9.546c2.25-6.911,3.921-14.56,5.079-23.303
		l0.354-2.41c0.386-2.764,0.772-5.56,0.997-8.549c0.257-3.921,0.482-7.778,0.482-11.699l0.032-1.221
		c0.065-1.221,0.097-2.475,0-3.696c-0.097-2.057-0.225-4.147-0.354-6.236c-0.192-3.599-0.643-7.2-1.124-10.735
		c-0.835-6.3-1.8-12.567-2.796-18.867c0,0,0.032-0.032,0.032-0.065c0.032,0,0.032-0.032,0.065-0.032
		c4.918,0.868,9.74,1.961,14.56,3.021l4.018,0.9c5.496,1.221,12.793,2.764,20.056,3.825l1.092,0.16
		c2.315,0.354,4.596,0.675,6.911,0.835c0.964,0.097,1.896,0.129,2.861,0.129l2.539-0.065l1.607-0.032
		c3.407-0.065,7.071-0.418,11.218-1.092c2.503-0.374,5.005-0.902,7.531-1.47c0.272-0.071,0.544-0.148,0.816-0.221
		c-0.005,0.013-0.009,0.027-0.013,0.04C472.299,389.088,472.329,389.081,472.359,389.074z M398.658,380.525c0-0.032,0-0.032,0-0.065
		c0.032,0.257,0.065,0.482,0.097,0.74C398.723,380.974,398.69,380.75,398.658,380.525z M323.447,71.258l0.257-3.921
		c1.318-0.835,2.121-2.346,2.121-3.889c0.097-5.56,0.225-11.056,0.449-16.584c0.16-3.342,0.514-6.654,0.868-9.996l0.483-4.082
		c0.9-5.4,1.8-11.024,3.696-16.2c0.418-0.932,0.9-1.8,1.575-2.796c0.257-0.161,0.514-0.321,0.772-0.451
		c1.221-0.386,2.41-0.675,3.696-0.9c0.772-0.032,1.543-0.065,2.315-0.065c3.15,0,6.236,0.386,10.286,0.932
		c4.95,0.707,10.092,1.478,14.849,3.182c0.675,0.321,1.318,0.643,1.993,1.06c0.257,0.964,0.449,1.897,0.675,2.893
		c0.514,5.882,0.803,11.732,1.061,17.581l0.129,2.057c0.192,4.082,0.449,8.164,0.707,12.214l0.482,7.971
		c0.418,6.974,0.675,13.949,0.868,20.956c0.097,2.989,0.065,6.011,0.032,9l-0.032,0.9c-0.097,5.142-0.161,10.446-0.74,15.621
		c-0.482,3.118-1.124,5.85-2.089,8.421c-0.451,0.9-0.964,1.8-1.543,2.636c0,0.032-0.675,0.546-0.675,0.546
		c-0.142,0.045-0.283,0.088-0.423,0.13c-0.177,0.085-0.373,0.167-0.573,0.223c0.194-0.083,0.385-0.143,0.559-0.219
		c-0.457,0.136-0.914,0.258-1.427,0.381c-3.021,0.289-6.074,0.418-9.097,0.418c-8.292,0-16.521-0.964-24.941-2.026
		c-1.571-0.283-3.122-0.547-4.834-1.103c-0.297-0.087-0.593-0.178-0.887-0.279c-0.031-0.021-0.067-0.045-0.105-0.071
		c-0.105-0.04-0.208-0.079-0.314-0.121c-0.192-0.514-0.321-1.061-0.418-1.607c-0.289-2.764-0.354-5.593-0.418-8.389l-0.065-2.121
		c-0.032-2.315-0.032-4.661-0.032-6.975v-2.314c0.065-6.396,0.16-12.793,0.514-19.156L323.447,71.258z M115.78,35.805
		c0.482-3.278,0.932-6.685,2.218-10.286l0.15-0.128c0.036-0.066,0.071-0.13,0.107-0.194c0.133-0.076,0.256-0.151,0.38-0.221
		l0.231-0.198c1.446-0.418,2.925-0.74,4.436-0.997c2.829-0.289,5.722-0.449,8.581-0.449c3.407,0,6.846,0.225,10.221,0.546
		c5.174,0.835,10.06,2.153,14.56,3.921c1.543,0.707,3.021,1.446,4.436,2.378c0.482,0.386,0.9,0.803,1.478,1.607
		c0.997,2.604,1.446,5.368,1.8,7.778c0.74,6.011,1.318,12.021,1.897,18.032l0.289,2.989c0.482,5.047,0.964,10.092,1.35,15.139
		c0.514,6.749,0.964,13.5,1.124,20.282c0.129,7.296-0.192,13.949-0.932,20.41c-0.451,2.636-0.997,4.757-1.735,6.749l-0.482,0.868
		c-0.032,0-1.543,0.289-1.575,0.321c-3.793,0.386-7.586,0.611-11.604,0.611c-1.672,0-3.342-0.032-5.014-0.097
		c-3.247-0.129-6.525-0.192-9.803-0.192c-1.767,0-3.536,0.065-5.304,0.129c-1.8,0.065-3.567,0.161-5.368,0.161
		c-1.124,0-2.218-0.032-3.375-0.097c-1.092-0.257-2.153-0.546-3.215-0.9c-0.482-0.257-0.932-0.514-1.8-1.157l-0.514-0.932
		c-0.74-2.057-1.286-4.147-1.703-6.332c-0.546-4.982-0.707-9.996-0.9-15.011l-0.16-3.567c-0.257-5.946-0.451-11.861-0.643-17.807
		c-0.257-8.132-0.451-16.232-0.611-24.331C114.655,48.63,115.169,42.459,115.78,35.805z M38.71,174.625l0.289-6.879
		c0.257-6.396,0.514-12.793,0.997-19.124c0.74-9.9,1.607-19.735,2.667-29.602l0.289-1.704c0.771-4.982,1.543-10.156,3.246-15.009
		c2.057-0.578,4.147-1.029,6.236-1.478l1.35-0.321c2.636-0.578,5.239-1.124,7.875-1.672c5.528-1.092,11.024-2.089,16.586-2.893
		c6.525-0.643,13.082-1.221,19.702-1.672c2.29-0.174,4.579-0.349,6.87-0.523c0.001,0.035,0.003,0.071,0.004,0.106
		c0.032,0,0.065,0,0.097,0l0.578,12.374l0.097,2.315c0.192,3.696,0.386,7.554,1.157,11.185c0.74,3.632,1.8,6.654,3.247,9.321
		c1.092,1.897,2.893,3.215,4.499,4.371c1.061,0.803,2.572,1.35,3.761,1.8c1.51,0.546,2.925,0.9,4.468,1.157
		c3.599,0.578,7.328,0.643,10.929,0.675c2.635,0.032,5.271,0.032,7.875,0.257l3.825,0.354c3.15,0.321,6.332,0.611,9.481,0.74
		c1.961,0.097,3.921,0.129,5.882,0.129c2.893,0,5.69-0.032,8.292-0.611c10.928-2.283,13.05-14.817,13.628-25.456l0.097-1.543
		c0.192-3.728,0.418-7.521,0.257-11.282c-0.129-4.307-0.354-8.646-0.546-13.017c-0.023-0.323-0.059-0.643-0.084-0.966
		c0.009,0,0.019,0.004,0.028,0.004c-0.001-0.034-0.003-0.066-0.004-0.099c2.024,0.16,4.05,0.225,6.107,0.257l2.989,0.065
		c3.632,0.16,7.265,0.289,10.896,0.289l1.254-0.032c8.807-0.032,17.613-0.16,26.389-0.289c9.224-0.16,17.775-0.514,26.164-1.124
		c7.2-0.482,14.528-1.543,21.567-2.572l5.817-0.868l8.807-1.254l8.838-1.286l5.271-0.675l7.168-0.9c0.027,0,0.045,0.009,0.053,0.027
		c0.003,0.004,0.006,0,0.006,0.006c0.032,0,0.032,0.032,0.032,0.065c-0.16,3.182-0.289,6.331-0.386,9.514
		c-0.386,9.097-0.514,17.87-0.418,26.132c0,2.507,0.289,4.628,0.868,6.493c0.643,1.993,1.864,3.632,3.858,5.174
		c2.764,2.153,6.428,3.021,9.289,3.504c4.531,0.803,9.032,1.51,13.596,2.121c5.593,0.771,12.567,1.703,19.253,1.703
		c1.672,0,3.31-0.065,4.982-0.192c1.383-0.097,2.796-0.321,4.115-0.643c0.835-0.257,1.64-0.611,2.443-0.997l0.868-0.386
		c0.932-0.451,1.735-1.157,3.118-2.346c0.803-0.707,1.478-1.672,2.539-3.215c1.543-2.089,2.443-4.79,3.247-7.2
		c0.964-2.861,1.35-5.946,1.735-9.097c0.772-6.332,0.835-12.76,0.803-18.77c-0.032-3.053-0.065-6.139-0.065-9.224
		c-0.012-0.412-0.045-0.82-0.057-1.232c0.025,0.021,0.037,0.053,0.062,0.074c0-0.032,0-0.065,0-0.097
		c0.418,0.354,0.868,0.643,1.35,0.868c1.029,0.483,2.089,0.964,3.15,1.35c1.092,0.386,2.315,0.449,3.504,0.514v0.097
		c0.032,0,0.097,0,0.129,0l0.835-0.065c0.514,0,1.061-0.032,1.607-0.065l1.124-0.065l7.2-0.192
		c5.336-0.192,10.672-0.449,15.974-0.835c5.142-0.354,10.253-0.611,15.395-0.772h0.868c2.925-0.097,5.882-0.192,8.838-0.192
		c2.283,0,4.596,0.065,6.879,0.192c1.35,0.225,2.667,0.514,4.018,0.9c0.289,1.157,0.578,2.378,0.772,3.568
		c0.803,7.521,1.286,15.139,1.767,22.725l0.129,1.832c0.483,7.746,0.868,15.46,1.286,23.206l0.321,5.817
		c0.772,13.82,1.993,27.77,3.053,40.113c0.141,1.455,0.281,2.91,0.422,4.366c-0.013-0.006-0.025-0.021-0.036-0.027
		c0,0.032,0,0.065,0,0.097c-0.74-0.354-1.575-0.611-2.089-0.74l-1.061-0.16c-0.707-0.129-1.414-0.225-2.475-0.225
		c-1.318,0.065-2.636,0.289-3.889,0.578c-1.767,0.354-3.472,0.675-5.207,0.964c-3.568,0.675-7.168,1.254-10.767,1.767
		c-18.964,2.378-39.181,3.504-63.576,3.504c-14.463,0-28.799-0.386-39.663-0.74c-7.36-0.257-14.722-0.354-22.049-0.451l-5.496-0.065
		c-4.468-0.065-8.903-0.192-13.371-0.289c-4.436-0.129-8.903-0.225-13.339-0.289c-1.543-0.032-3.086-0.065-4.628-0.065
		c-6.846,0-13.725,0.257-20.539,0.546c-9.481,0.386-18.932,0.997-28.702,1.64c-7.071,0.449-14.111,0.964-21.182,1.51
		c-10.381,0.771-20.796,1.575-31.209,2.121l-18.385,0.9c-12.247,0.611-24.492,1.189-36.77,1.897
		c-6.749,0.386-13.468,0.643-20.185,0.74l-9.546,0.065c-3.953,0.032-7.938,0.032-11.893,0.129
		c-10.382,0.16-23.946,0.546-37.542,2.218c-0.279,0.035-0.558,0.09-0.837,0.127c0-0.01,0-0.021,0.001-0.03c0,0-0.032,0-0.065,0
		L38.71,174.625z M345.116,490.706l-6.943,0.74c-6.557,0.707-13.114,1.446-19.702,1.929l-4.596,0.354
		c-3.342,0.289-6.717,0.578-10.061,0.675l-8.164,0.161l-8.003,0.16c-1.929,0.032-3.889,0.032-5.817,0.032
		c-4.853,0-9.675-0.097-14.496-0.192L261,494.436c-8.454-0.16-16.906-0.321-25.36-0.514c-8.678-0.192-17.356-0.418-26.067-0.675
		c-10.413-0.289-20.891-0.578-31.338-0.74l-3.599-0.032c-6.493,0-12.985,0.289-19.51,0.578l-3.472,0.161
		c-8.549,0.386-17.1,0.643-25.681,0.771h-1.318c-2.635,0-5.304-0.097-7.938-0.225l-4.179-0.129
		c-3.086-0.097-6.171-0.321-9.224-0.546l-4.147-0.289c-7.457-0.546-14.978-1.543-22.274-2.539l-1.286-0.161l-4.918-0.835
		l-4.21-0.675c-2.924-0.483-5.785-1.157-8.646-1.897c-5.657-1.318-11.218-3.053-16.489-5.207c-1.189-0.546-2.347-1.092-3.472-1.832
		c-0.225-0.771-0.418-1.543-0.546-2.378c-1.029-10.221-1.672-18.675-2.024-26.645c-0.257-6.139-0.386-12.247-0.482-18.385
		l-0.16-7.36c-0.225-11.185-0.707-22.339-1.157-33.492c-0.289-7.232-0.578-14.496-0.835-21.728c-0.675-21.02-0.9-39.727-0.74-57.179
		c0.192-18.064,1.318-36.353,2.507-55.026c1.026-15.331,1.956-30.695,2.759-46.123l0,0c0.001-0.032,0.003-0.063,0.005-0.096
		l1.221-0.16l2.378-0.386l1.287-0.107c0.115-0.018,0.229-0.035,0.352-0.053c-0.045,0.015-0.092,0.026-0.139,0.035l5.026-0.421
		l6.525-0.578c2.989-0.225,5.979-0.321,9-0.386c1.607-0.032,3.246-0.065,4.853-0.16c2.7-0.097,5.433-0.129,8.164-0.129
		c2.7,0,5.433,0.032,8.132,0.065l6.332,0.065l2.635-0.032c13.017-0.032,26.259-0.611,39.052-1.157
		c5.271-0.225,10.575-0.451,15.846-0.675l27.481-0.964c9.097-0.354,18.192-0.932,27.288-1.51
		c14.657-0.932,33.941-2.057,53.194-2.667c4.79-0.129,9.578-0.225,14.4-0.225c3.728,0,7.489,0.065,11.218,0.161l11.861,0.418
		c4.918,0.16,9.803,0.354,14.688,0.449c6.975,0.192,13.917,0.451,20.893,0.675c11.056,0.354,22.114,0.74,33.203,0.9
		c8.711,0.129,17.389,0.161,26.067,0.161c6.589,0,13.21-0.354,19.799-0.707l6.139-0.321c7.617-0.386,15.557-1.029,24.267-2.024
		c4.468-0.514,8.903-1.124,13.339-1.8l2.443-0.354l2.475-0.354c2.796-0.418,4.982-1.961,6.589-3.247l0.321-0.16l-0.065-0.065
		c0.032,0,0.032-0.032,0.065-0.032l0.032,0.032c0.032,0,0.032,0.032,0.065,0.065c0.74,7.778,1.478,15.557,2.475,23.624
		c1.157,9.578,2.346,19.156,3.182,28.767c0.611,7.071,0.9,14.142,1.221,21.214l0.321,6.685c0.386,8.389,0.803,16.746,1.383,25.103
		l0.097,1.832c1.221,17.486,2.443,35.548,2.796,53.388c0.096,6.407,0.191,12.813,0.16,19.284c-0.001,0-0.003,0.001-0.005,0.001
		c0,0,0,0.032,0,0.065l-2.989,1.029l-3.342,1.124c-3.504,1.189-7.103,2.089-11.056,2.764c-2.378,0.289-4.79,0.514-7.2,0.611
		c-0.772,0.032-1.575,0.032-2.346,0.032c-2.861,0-5.722-0.225-8.549-0.578c-8.003-1.189-16.006-2.732-24.524-4.693l-1.607-0.354
		c-3.664-0.835-7.296-1.672-10.992-2.315l-1.286-0.257c-1.864-0.321-3.793-0.675-5.69-0.675c-1.929,0-3.504,0.354-4.853,1.125
		c-3.825,2.25-3.342,7.168-2.925,11.313c0.418,4.147,0.9,8.26,1.414,12.374c0.578,4.725,1.189,9.481,1.64,14.239
		c0.386,4.115,0.386,8.324,0.321,12.631c-0.065,4.436-0.386,8.838-0.707,13.371l-0.482,3.536l-0.868,6.268
		c-0.675,4.757-1.864,9.514-3.053,13.949c-1.124,4.371-2.572,8.711-4.242,12.921c-2.153,4.917-4.79,9.707-7.168,13.853l0,0h-0.063
		c-0.001,0.003-0.003,0.004-0.004,0.006l-5.262,0.475C361.314,489.066,353.215,489.837,345.116,490.706z M475.257,413.758
		c-0.065,5.336-0.192,10.703-0.451,16.038l-0.225,3.953c-0.386,7.586-0.772,15.395-1.703,23.046
		c-0.707,4.917-1.672,10.703-3.761,16.232c-0.707,1.511-1.446,2.925-2.346,4.339c-0.451,0.514-0.9,0.964-1.414,1.414
		c-0.289,0.192-0.578,0.386-0.9,0.546c-1.254,0.354-2.539,0.675-3.858,0.9c-4.082,0.386-8.26,0.418-12.342,0.451l-4.115,0.065
		c-4.628,0.065-9.321,0.192-13.917,0.611c-9.064,0.835-18.256,2.153-27.127,3.407l-0.493-0.016c-0.15,0.021-0.301,0.043-0.451,0.063
		c0.035-0.027,0.068-0.053,0.103-0.08h-0.16l4.404-3.407l4.79-3.696c1.124-0.868,2.186-1.767,3.278-2.667l1.993-1.703l1.157-0.932
		c1.124-0.932,2.283-1.864,3.342-2.861l5.946-5.4c1.092-0.997,2.153-2.026,3.182-3.086l1.575-1.575
		c2.925-2.893,5.785-5.817,8.614-8.775l1.543-1.607c2.507-2.636,5.047-5.303,7.36-8.164l1.543-1.896
		c1.157-1.414,2.314-2.829,3.375-4.307l2.283-3.118l2.315-3.118c1.832-2.539,3.567-5.11,5.336-7.682l1.993-2.861
		c2.732-3.921,4.95-7.2,6.911-10.799c0.74-1.415,1.446-2.829,2.153-4.242c0-0.032,0.032-0.065,0.065-0.065h0.032h0.005
		c0.032,0.001,0.063,0.063,0.063,0.096L475.257,413.758z" fill="#161616" data-original="#161616" class="hovered-path"></path>
	<path style="" d="M396.023,477.11h0.032c0.015-0.016,0.023-0.03,0.031-0.041L396.023,477.11z" fill="#161616" data-original="#161616" class="hovered-path"></path>
	<path style="" d="M254.669,405.723l0.16-0.868c0.386-2.186,0.707-4.371,0.997-6.589
		c0.321-2.41,0.611-4.821,0.868-7.263c0.192-1.543,0.289-3.053,0.418-4.596l0.097-1.8c0.225-2.635,0.065-5.047-0.451-7.168
		c-0.257-0.9-0.932-2.024-1.607-2.7c-0.578-0.611-1.381-1.029-2.218-1.511c-1.543-0.835-3.342-1.446-5.304-1.8
		c-1.446-0.321-2.956-0.321-4.885-0.354l-1.446-0.032c-2.7,0-5.368,0.097-8.068,0.225l-3.761,0.128
		c-4.661,0.129-9.321,0.129-13.982,0.129c-4.853,0.032-9.707,0.16-14.592,0.321c-3.118,0.097-6.236,0.192-9.321,0.192h-2.121
		c-0.013,0,0.027-0.041,0.08-0.096c-0.027,0-0.053,0-0.08-0.001c0.079-0.057,0.163-0.114,0.249-0.172
		c0.025-0.026,0.04-0.045,0.04-0.053c0-0.032,0.386-0.354,0.418-0.354c1.704-1.124,3.342-2.346,4.982-3.599
		c1.8-1.35,3.568-2.732,5.336-4.147c1.414-1.124,2.764-2.346,4.114-3.567l1.189-1.061c2.925-2.604,5.69-5.4,8.421-8.164l1.157-1.189
		c1.061-1.029,2.024-2.153,3.021-3.246l1.575-1.767c1.318-1.478,2.572-3.053,3.761-4.596c1.414-1.8,3.246-4.242,4.757-6.814
		l0.868-1.543c1.029-1.832,2.057-3.664,3.053-5.528c1.189-2.314,2.218-4.693,3.182-7.103c1.061-2.636,1.896-5.56,2.667-9.481
		c0.546-2.539,0.835-5.174,1.092-7.778c0.257-2.604,0.257-5.174,0.192-7.778c-0.065-2.572-0.192-5.174-0.386-7.746
		c-0.225-2.925-0.643-5.785-1.189-8.646c-0.192-1.124-0.451-2.218-0.74-3.31l-0.225-0.9c-1.061-4.018-2.41-7.939-4.21-11.956
		c-2.121-4.661-5.047-9.289-8.678-13.788c-3.472-4.242-7.971-7.811-13.82-10.928c-1.735-0.9-3.567-1.607-5.399-2.218
		c-2.089-0.707-4.436-1.124-7.586-1.35c-0.868-0.065-1.703-0.097-2.539-0.097c-4.436,0-8.775,0.868-12.825,1.832
		c-6.365,1.575-12.15,4.307-16.489,6.525c-6.268,3.215-11.089,6.268-15.139,9.61c-2.153,1.735-3.985,3.889-5.69,5.979
		c-1.51,1.832-2.861,3.728-4.147,5.69c-1.735,2.667-3.215,5.593-4.371,8.678c-1.189,1.286-2.507,2.829-3.632,4.693l-0.065-0.032
		l-0.482,1.061l-0.354,0.835l-0.354,0.803c-0.321,1.124-0.611,2.443-0.289,3.761c0.74,2.829,2.539,5.304,4.018,7.103
		c0.675,0.868,1.415,1.704,2.121,2.507c0.74,0.835,1.446,1.672,2.153,2.507l2.7,3.278l1.35,1.64
		c0.997,1.254,2.024,2.443,3.086,3.664c0.707,0.803,1.446,1.575,2.25,2.314c0.546,0.514,2.026,1.704,3.728,1.704
		c0.611,0,1.157-0.16,1.672-0.451c0.611-0.418,1.092-0.772,1.543-1.286c0.451-0.482,0.835-1.061,1.286-1.704l0.771-1.221
		l0.772-1.221c1.157-1.832,2.378-3.632,3.696-5.336c1.318-1.64,2.7-3.182,4.179-4.693c1.318-1.35,2.829-2.572,4.339-3.793
		c1.124-0.803,2.25-1.575,3.407-2.314c2.089-1.318,4.628-2.861,7.392-4.082l1.189-0.418c0.707-0.225,1.446-0.386,2.218-0.418
		c-0.065-0.032-0.097-0.032-0.129-0.065c0.707-0.032,1.414-0.065,2.089-0.065c0.997,0,1.993,0.065,3.021,0.16
		c0.611,0.16,1.189,0.354,1.767,0.546c0.514,0.257,1.029,0.546,1.543,0.868c0.675,0.643,1.286,1.254,1.897,1.993
		c0.369,0.511,0.652,1.057,0.936,1.618c0.269,0.647,0.527,1.304,0.702,1.982c0.225,0.772,0.386,1.575,0.482,2.346
		c0.161,1.607,0.289,3.182,0.321,4.79c0.032,1.575-0.097,3.15-0.225,4.79c-0.74,5.047-2.089,10.029-4.018,14.882
		c-0.74,1.64-1.543,3.246-2.378,4.821c-0.997,1.832-2.153,3.504-3.375,5.142c-2.893,3.375-5.785,6.525-8.614,9.289
		c-1.446,1.383-2.924,2.732-4.436,4.05c-0.997,0.868-2.024,1.672-3.086,2.507l-0.964,0.771l0.675-0.546
		c-1.704,1.286-3.472,2.572-5.239,3.793l-2.604,1.8l-2.635,1.767c-1.864,1.254-3.728,2.507-5.56,3.793
		c-1.929,1.35-3.761,2.861-5.56,4.371c-0.483,0.418-0.932,0.835-1.35,1.286l-0.707,0.675c-0.643,0.643-1.35,1.415-1.832,2.186
		l-0.74,1.254c-0.289,0.611-0.546,1.254-0.771,1.897c-0.097,0.386-0.161,0.772-0.225,1.157l-0.289,2.153
		c-0.225,2.089-0.321,4.179-0.321,6.3c-0.032,4.115-0.065,8.228,0.097,12.342c0.065,2.186,0.16,4.371,0.289,6.557
		c0.129,2.314,0.354,4.564,0.611,7.2c0.16,1.897,0.482,3.793,0.868,5.657c0.257,1.318,0.74,2.572,1.221,3.761
		c0.451,1.029,0.932,2.186,1.767,3.118c1.221,1.446,2.604,2.41,4.147,2.925c1.478,0.451,3.021,0.643,4.95,0.835
		c8.325,0.835,16.649,1.703,25.713,2.861l0.835,0.097l6.3,0.932c6.203,0.932,12.631,1.864,19.028,2.41l1.864,0.16
		c3.664,0.321,7.36,0.643,11.056,0.675c1.543,0.065,3.086,0.097,4.628,0.097l1.929-0.032c1.189-0.065,2.347-0.097,3.504-0.129
		c0.932,0,1.896-0.129,2.861-0.225l1.414-0.161c2.121-0.161,4.242-0.451,6.332-0.803c2.218-0.386,4.307-1.124,6.236-2.218
		c0.772-0.451,1.415-1.189,1.961-1.8c0.514-0.578,0.932-1.221,1.383-2.121c0.643-1.318,1.061-2.732,1.478-4.147
		C254.091,409.001,254.38,407.33,254.669,405.723z M249.526,385.73l-0.16,2.089l-0.16,2.089c-0.321,3.021-0.675,6.043-1.061,9.032
		l0.16-1.029l-0.321,2.186c-0.192,1.478-0.386,2.925-0.643,4.404l-0.192,0.964c-0.383,1.789-0.736,3.549-1.403,5.622
		c0.012-0.023,0.032-0.052,0.054-0.094c-0.032,0.097-0.065,0.192-0.129,0.257c-0.065,0.192-0.129,0.418-0.192,0.611l-0.611,0.835
		c-0.371,0.226-0.751,0.382-1.13,0.555c-0.123,0.04-0.24,0.08-0.381,0.12c-0.097,0.065-0.192,0.097-0.289,0.129
		c0.065-0.032,0.129-0.065,0.192-0.097c-1.286,0.418-2.604,0.675-3.985,0.932c-2.026,0.257-4.018,0.451-6.011,0.643
		c-1.286,0.129-2.572,0.16-3.858,0.192l-0.997,0.065l-2.443,0.032h-1.029h-0.932h-0.964c-0.964,0-1.929-0.032-2.861-0.065
		l-2.989-0.192c-1.993-0.129-3.985-0.225-5.979-0.386c-2.989-0.225-5.946-0.514-8.678-0.835l-7.682-1.092
		c-5.399-0.772-10.799-1.511-16.2-2.057c-3.953-0.418-7.938-0.835-11.893-1.221l-4.018-0.386c-2.25-0.192-4.499-0.386-6.943-0.707
		c-0.578-0.097-1.124-0.225-1.864-0.482l-0.354-0.289c-0.032,0-0.032-0.032-0.065-0.032c-0.032-0.032-0.065-0.065-0.097-0.097
		l-0.418-0.321c-0.065-0.129-0.129-0.225-0.192-0.354c-0.065-0.065-0.097-0.129-0.129-0.192c0.032,0.032,0.065,0.097,0.097,0.129
		c-0.225-0.386-0.483-0.932-0.868-1.832c-0.257-0.707-0.451-1.478-0.611-2.25c-0.321-1.029-0.451-2.089-0.611-3.407
		c-0.289-2.796-0.546-5.625-0.74-8.421c-0.192-2.893-0.321-5.785-0.418-8.678c-0.097-2.636-0.128-5.271-0.16-7.906
		c-0.032-2.861-0.065-5.946,0.257-9.064c0.129-0.514,0.321-1.029,0.354-1.029c0,0,0,0,0,0.032l0.192-0.354
		c0.036-0.054,0.072-0.119,0.108-0.189c-0.015,0.041-0.031,0.083-0.044,0.124l0.321-0.546c1.478-1.672,3.15-3.086,4.725-4.371
		c3.567-2.572,7.2-4.95,10.864-7.328c3.793-2.475,7.392-5.142,10.961-7.906c2.925-2.283,5.914-5.079,9.16-8.549
		c1.672-1.703,3.247-3.504,4.95-5.464c3.342-3.856,6.139-8.711,8.549-14.753c1.157-2.989,1.993-6.107,2.636-8.775
		c0.578-2.475,0.964-5.047,1.221-7.617c0.354-3.086,0.097-6.171-0.225-9.064c-0.097-1.286-0.354-2.507-0.611-3.696l0.065-0.032
		l-0.514-1.318c-0.257-0.643-0.546-1.318-0.835-1.961c-0.451-0.835-0.997-1.832-1.8-2.764c-0.9-1.061-1.64-1.832-2.539-2.539
		c-1.543-1.286-3.407-2.121-6.042-2.764c-0.932-0.225-1.993-0.257-2.989-0.289v-0.097l-1.189,0.032
		c-1.383,0-2.732,0.225-4.596,0.514c-1.189,0.192-2.346,0.643-3.439,1.092c-1.254,0.546-2.475,1.157-3.728,1.8
		c-1.318,0.707-2.572,1.51-4.275,2.572c-1.961,1.254-3.793,2.636-5.593,4.082c-1.543,1.254-2.989,2.604-4.371,4.018
		c-1.543,1.543-2.956,3.278-4.275,5.014c-0.997,1.318-1.961,2.636-2.925,3.953l-1.543,2.121c-0.065,0.129-0.129,0.225-0.192,0.321
		l-0.065,0.065c-0.74-0.835-1.446-1.672-2.121-2.572l-3.053-3.535l-3.953-4.468l-1.446-1.64c-0.74-0.803-1.478-1.607-2.41-2.764
		c-0.707-0.932-1.318-1.864-1.929-3.182l0.225-1.124c0.386-0.771,0.74-1.478,1.478-2.7l0.578-0.964
		c0.386-0.482,0.772-0.964,1.221-1.414c0.997-1.157,1.094-2.732,0.257-3.889c1.575-3.439,3.632-6.814,6.107-10.092
		c1.157-1.478,2.346-2.893,3.632-4.275c1.221-1.318,2.604-2.475,3.504-3.246c2.539-1.896,5.079-3.536,7.554-4.95l1.318-0.803
		c0.964-0.546,1.896-1.092,2.893-1.575l1.157-0.643c1.092-0.578,2.186-1.157,3.31-1.64c1.383-0.611,2.732-1.221,4.114-1.864
		c5.271-2.089,10.253-3.472,15.268-4.179c1.64-0.16,3.31-0.257,4.982-0.257c1.318,0,2.636,0.065,3.985,0.16
		c2.604,0.451,4.95,1.092,7.232,2.057c2.764,1.318,5.368,2.829,7.843,4.628c2.7,2.218,5.079,4.661,7.296,7.457
		c2.604,3.568,4.853,7.522,6.749,11.828c2.057,5.047,3.504,10.382,4.468,16.457c0.418,3.375,0.643,7.006,0.74,11.41v1.767l0.032,1.8
		c-0.032,2.604-0.225,5.111-0.546,7.649c-0.354,2.507-0.835,5.047-1.478,7.521c-0.546,2.314-1.381,4.757-2.507,7.522
		c-1.35,3.086-2.956,6.042-4.628,8.967l-0.772,1.35l-0.772,1.318c-1.189,2.121-2.667,4.115-4.114,6.074
		c-4.018,5.079-8.678,10.189-14.271,15.589l-1.414,1.35c-0.611,0.611-1.221,1.221-1.864,1.8l-1.092,1.029
		c-0.868,0.803-1.704,1.607-2.604,2.346l-2.41,2.026l-1.318,1.125c-0.835,0.74-1.735,1.381-3.246,2.507
		c-2.25,1.64-4.596,3.278-6.943,4.853l-0.868,0.578c-0.707,0.451-1.414,0.932-2.057,1.478c-0.74,0.643-1.929,1.993-1.929,3.567
		c0,1.189,0.611,2.796,1.767,3.407c0.449,0.225,0.9,0.451,1.381,0.611c0.932,0.192,1.832,0.354,2.764,0.482
		c4.082,0.483,8.228,0.483,13.082,0.514h9.803c3.632,0.032,7.296,0.097,10.928,0.16l8.743,0.129c3.215,0,6.46-0.129,9.675-0.257
		l3.278-0.097c1.51-0.065,3.021-0.129,4.531-0.129c0.707,0,1.414,0,2.121,0.032c0.868,0.192,1.607,0.386,2.378,0.675
		c0.192,0.097,0.386,0.192,0.643,0.418c0.065,0.032,0.129,0.065,0.192,0.097c0,0.032,0,0.065,0,0.097
		c0.065,0.032,0.097,0.097,0.161,0.16C249.719,382.034,249.623,383.898,249.526,385.73z" fill="#161616" data-original="#161616" class="hovered-path"></path>
	<path style="" d="M371.567,273.074c0-1.124-0.097-2.218-0.289-3.921l-0.225-1.993l-0.257-1.961
		c-0.386-2.861-0.771-5.721-1.221-8.549c-0.225-1.381-0.546-2.732-0.835-4.082c-0.418-1.607-1.092-3.15-1.832-4.661
		c-0.578-1.189-1.929-1.704-3.021-1.704c-0.032,0-0.065,0-0.129,0c-0.115,0-0.238-0.006-0.365-0.061
		c-0.15,0.022-0.296,0.052-0.438,0.093c-0.032,0-0.032,0-0.032,0c0.025-0.148,0.049-0.297,0.059-0.445
		c-0.03-0.041-0.061-0.084-0.092-0.134c0-1.735-1.414-3.15-3.215-3.215c-9.772-0.386-19.574-0.74-29.345-0.9l-7.425-0.129
		c-6.589-0.097-13.21-0.192-19.799-0.418c-4.436-0.129-8.871-0.386-13.274-0.772l-5.785-0.514c-0.74-0.065-1.414-0.097-2.635-0.097
		c-0.835,0.032-1.961,0.225-2.604,0.675l-1.061,0.74c-0.611,0.418-1.124,0.9-1.543,1.543c-0.997,1.124-1.607,2.572-2.024,3.696
		c-1.478,4.339-1.993,8.935-2.283,13.274l-0.192,2.25c-0.097,1.51-0.225,2.989-0.354,5.239c-0.225,4.404-0.482,8.807-0.675,13.177
		c-0.482,10.189-0.868,20.378-1.189,30.566c-0.097,2.283-0.16,4.531-0.225,6.814c-0.032,0.932-0.065,1.864-0.065,2.796
		c0.032,1.029,0.065,1.993,0.129,3.021c0.032,0.74,0.192,1.446,0.546,2.121c0.16,0.611,0.449,1.124,0.932,1.575l0.772,0.803
		c0.514,0.483,0.997,0.772,1.575,0.932c0.611,0.354,1.286,0.514,1.929,0.514l0.418,0.097v-0.065c0.707,0,1.414-0.065,2.089-0.225
		c1.189-0.192,2.378-0.483,3.536-0.772l1.092-0.225c2.024-0.514,4.082-0.835,6.846-1.318c1.672-0.192,3.342-0.386,5.014-0.546
		c1.35-0.097,2.667-0.192,4.018-0.321c0.868-0.065,1.735-0.097,2.572-0.097c1.197,0,2.395,0.075,3.592,0.266
		c0.223,0.021,0.448,0.044,0.673,0.068l-0.44-0.142c2.346,0.418,4.114,0.9,5.785,1.575c1.543,0.707,2.989,1.51,4.404,2.475
		c1.832,1.575,3.599,3.439,5.431,5.657c0.514,0.74,0.997,1.414,1.446,2.186c0.354,0.611,0.675,1.254,1.286,2.604
		c0.386,1.061,0.707,2.121,0.964,3.247c0.16,1.896,0.129,3.793-0.097,5.753c-0.065,0.451-0.192,0.868-0.321,1.254
		c-0.321,0.643-0.675,1.254-1.092,1.896c-0.611,0.772-1.254,1.414-2.024,2.057c-0.74,0.514-1.478,0.932-2.764,1.607
		c-0.675,0.257-1.35,0.482-2.25,0.675c-0.643,0.129-1.318,0.289-1.993,0.386c-1.061,0.065-2.121,0.097-3.182,0.097
		c-1.254,0-2.539-0.065-3.825-0.129c-0.449-0.032-0.868-0.097-1.929-0.192c-1.897-0.289-3.761-0.611-5.593-1.092
		c-1.929-0.482-3.793-1.061-5.657-1.8c-1.415-0.643-2.796-1.414-4.115-2.346l-1.029-0.9l-0.74-0.675
		c-0.675-0.643-1.478-1.35-2.443-1.64c-0.483-0.129-0.964-0.192-1.51-0.192c-2.153,0-4.307,1.221-5.914,2.089
		c-1.414,0.803-2.829,1.703-3.568,2.956c-0.257,0.418-0.514,0.868-0.74,1.286c-0.257,0.482-0.449,1.029-0.643,1.735
		c-0.225,0.772-0.321,1.704-0.418,3.278c-0.16,1.607,0,3.247,0.225,5.69l0.289,3.536c0.192,2.218,0.386,4.436,0.611,6.654
		c0.192,2.347,0.578,4.661,0.964,6.974c0.225,1.446,0.675,2.893,1.124,4.339l0.354,1.189c0.129,0.354,0.257,0.707,0.611,1.607
		c0.192,0.546,0.418,1.124,0.643,1.64l0.354,0.771c0.354,0.772,0.74,1.543,1.124,2.283c1.414,2.507,2.7,4.725,4.339,6.654
		c0.868,1.029,1.735,1.929,2.732,2.829c0.835,0.74,1.8,1.446,2.956,2.25c1.672,1.254,3.536,2.186,5.464,3.15
		c2.121,1.061,4.275,1.993,6.493,2.861c2.347,0.868,4.404,1.478,6.332,1.832l1.993,0.354l1.929,0.354
		c0.964,0.192,1.929,0.289,3.568,0.451c0.868,0.097,1.735,0.161,2.635,0.225c1.415,0.097,2.861,0.129,4.275,0.129
		c1.286,0,2.539-0.032,3.825-0.129c4.885-0.257,9.739-1.383,14.368-3.31c2.475-1.029,4.917-2.25,7.265-3.536
		c3.761-2.057,6.943-4.436,9.707-7.232c1.543-1.575,3.021-3.504,4.693-6.043c1.381-2.057,2.604-4.532,3.825-7.554
		c1.414-3.599,2.507-7.457,3.31-11.828c0.418-1.993,0.707-3.953,1.029-5.946l0.129-1.029c0.578-3.889,0.9-8.003,0.997-12.214
		l0.065-1.832c0.032-1.543,0.065-3.086,0-4.628c-0.032-2.41-0.065-4.821-0.225-7.2c-0.129-2.186-0.289-4.371-0.482-6.557
		c-0.354-3.953-1.061-7.489-2.057-10.799c-0.643-2.186-1.383-4.339-2.186-6.46c-0.772-1.929-1.64-3.793-2.7-5.593
		c-1.061-1.832-2.539-3.599-4.79-5.753c-2.572-2.475-5.625-4.242-8.775-6.011c-0.707-0.386-1.446-0.707-2.507-1.221
		c-2.121-0.997-4.275-1.864-6.493-2.539c-1.092-0.354-2.25-0.578-3.407-0.835l-1.029-0.192c-2.024-0.418-4.147-0.643-6.525-0.707
		c-1.221,0-2.475,0.192-4.115,0.418c-1.221,0.16-2.41,0.354-3.953,0.675c-1.016,0.214-2.013,0.427-3.133,0.549
		c-0.177,0.032-0.354,0.065-0.532,0.094h-0.032c-0.023,0-0.03-0.017-0.044-0.039c-0.028,0.003-0.056,0.005-0.084,0.006
		c-0.886-1.328-1.636-2.721-2.399-4.428c-0.883-2.159-1.602-4.105-2.05-6.083c-0.097-0.363-0.19-0.726-0.275-1.091
		c0-0.065,0-0.129,0-0.192c0,0,0-0.017,0.013-0.026c-0.004-0.023-0.009-0.046-0.013-0.07c1.735-0.643,3.536-0.997,5.431-1.35
		c4.918-0.449,10.061-0.675,16.232-0.74h2.315c4.468,0,8.903,0.16,13.339,0.386l3.664,0.192l3.664,0.192l1.929,0.097l1.929,0.065
		v0.097l1.51-0.065c1.221,0,2.41-0.097,3.599-0.289c0.546-0.192,1.092-0.418,1.607-0.643c0.482-0.354,0.964-0.772,1.414-1.221
		c0.483-0.546,0.868-1.092,1.189-1.767c0.289-0.675,0.578-1.383,0.835-2.089c0.16-0.803,0.289-1.607,0.386-2.443
		c0.065-0.611,0.129-1.221,0.129-1.832C371.6,274.52,371.6,274.103,371.567,273.074z M364.11,278.281c-0.032,0-0.032,0-0.032,0
		c0.032,0,0.032-0.032,0.032-0.032V278.281z M364.69,276.546c-0.097,0.354-0.161,0.74-0.418,1.254c0,0.032-0.032,0.097-0.032,0.129
		c-0.032,0.032-0.032,0.032-0.065,0.065c-0.032,0.129-0.129,0.257-0.192,0.418c-0.161,0-0.321,0-0.482,0
		c-0.065,0.032-0.129,0.032-0.192,0.032c-0.514,0-1.029,0-1.543,0c-1.672,0-3.342-0.065-5.014-0.16l-1.767-0.065
		c-2.186-0.065-4.371-0.16-6.557-0.257l-3.278-0.129c-2.378-0.097-4.725-0.129-7.103-0.129c-4.596,0-9.192,0.129-13.788,0.289
		c-4.178,0.129-7.811,0.546-11.121,1.254c-1.64,0.321-3.118,0.964-4.371,1.51c-0.418,0.289-0.868,0.578-1.254,0.932l-0.546,0.675
		c-0.451,0.451-0.74,0.9-0.9,1.478c-0.289,0.546-0.418,1.125-0.451,1.703c-0.16,0.9-0.129,1.767,0.065,2.925
		c0.192,1.221,0.451,2.443,0.803,3.664c0.482,1.672,1.157,3.31,1.864,4.885c0.74,1.64,1.672,3.568,2.989,5.368
		c0.192,0.225,0.386,0.514,0.546,0.74c0.482,0.483,0.964,0.932,2.186,1.607c0.74,0.386,1.543,0.74,2.378,0.74
		c1.832,0,3.664-0.418,6.171-0.997c1.575-0.321,3.086-0.578,4.628-0.803c1.124-0.097,2.25-0.16,3.342-0.16
		c0.643,0,1.318,0.032,1.961,0.065c2.443,0.321,4.853,0.771,7.263,1.446c1.704,0.449,3.407,1.157,5.4,1.993l3.086,1.543
		c1.543,0.74,3.053,1.735,5.014,3.182c1.221,1.061,2.346,2.153,3.407,3.375c1.221,1.704,2.218,3.407,3.021,5.174
		c1.832,4.404,3.086,8.549,3.858,12.921c0.386,3.053,0.611,6.139,0.74,9.224c0.129,2.539,0.129,5.079,0.16,7.617l0.032,1.543
		c0,0.964-0.065,1.929-0.128,2.893l-0.032,0.9c-0.032,1.286-0.097,2.539-0.192,3.793c-0.225,2.796-0.546,5.625-0.868,8.389
		l-0.161,1.029c-0.257,1.446-0.482,2.925-0.772,4.339l-0.9,4.082c-0.546,2.572-1.414,5.207-2.764,8.581
		c-1.318,3.021-2.893,5.753-4.79,8.389c-1.575,1.864-3.15,3.472-4.79,4.885c-3.728,2.829-8.003,4.885-12.245,6.782
		c-3.15,1.286-6.428,2.186-10.093,2.764c-2.024,0.225-4.082,0.386-6.139,0.386c-0.835,0-1.672-0.032-3.086-0.097
		c-0.835-0.032-1.672-0.032-2.475-0.129l-1.607-0.16l-1.575-0.161c-2.153-0.386-4.242-0.803-6.332-1.35
		c-2.443-0.611-4.79-1.575-7.071-2.539l-1.318-0.643l-1.286-0.643c-1.897-0.9-3.664-1.992-5.431-3.215
		c-0.546-0.418-1.092-0.868-1.575-1.35c-0.803-0.707-1.478-1.51-2.153-2.378c-0.803-1.157-1.64-2.378-2.346-3.599
		c-0.772-1.254-1.414-2.539-2.057-3.858l-0.418-1.029l-0.386-0.997c-0.225-0.514-0.386-1.061-0.546-1.575l-0.289-1.029
		c-0.578-1.767-0.9-3.632-1.254-5.593c-0.354-2.7-0.643-5.368-0.868-8.1l-0.065-0.868c-0.354-3.536-0.74-7.168-0.483-10.799
		c0.097-0.321,0.192-0.643,0.289-0.964l0.354-0.482c0.065-0.065,0.097-0.129,0.129-0.192c0.032-0.032,0.065-0.032,0.097-0.065
		l0.225-0.321c1.35-0.868,2.732-1.672,4.404-2.378l1.35,1.124l1.092,0.9c1.061,0.868,2.186,1.64,3.407,2.346
		c1.318,0.772,2.764,1.318,4.853,2.153c2.41,0.932,5.079,1.703,8.454,2.315c2.121,0.418,4.339,0.611,6.493,0.771
		c0.643,0.065,1.254,0.097,1.897,0.097c1.575,0,3.182-0.16,4.725-0.418c0.932-0.161,1.864-0.321,2.796-0.611
		c0.9-0.257,1.8-0.675,3.342-1.381c3.215-1.511,6.042-4.501,7.554-8.003c0.643-1.575,0.803-3.15,0.932-4.693
		c0.192-1.703,0.129-3.536-0.16-5.625c-0.192-1.543-0.578-2.956-1.189-4.468c-0.707-1.832-1.672-3.567-2.7-5.271
		c-0.997-1.607-2.314-3.021-4.018-4.918c-1.221-1.35-2.572-2.604-4.05-3.728c-2.989-2.283-6.589-3.921-10.703-4.918
		c-2.121-0.482-4.436-0.707-7.071-0.707c-1.157,0-2.346,0.032-3.568,0.129c-3.342,0.225-6.685,0.451-9.964,0.932
		c-1.896,0.257-3.761,0.546-5.593,0.9l-0.9,0.16l-2.956,0.546c-0.386,0.065-0.74,0.16-1.124,0.225c0,0,0,0,0-0.032l-0.097,0.032
		c-0.097-1.8-0.065-3.632,0-5.433v-1.543l0.129-4.147l0.097-4.147c0.16-5.593,0.354-11.218,0.578-16.81
		c0.129-3.793,0.289-7.617,0.451-11.41l0.225-5.433l0.065-1.124c0.257-5.753,0.546-11.699,1.254-17.453
		c0.192-1.286,0.418-2.636,0.707-3.921c0.257-1.061,0.643-2.089,1.029-3.086l0.868-1.254c0.032,0,0.129-0.065,0.129-0.065
		l0.032-0.032c1.157,0,2.315,0.129,3.472,0.225l1.157,0.097c1.543,0.161,3.086,0.289,4.661,0.418
		c2.507,0.225,4.982,0.354,7.489,0.482l1.864,0.065c4.821,0.225,9.643,0.257,14.431,0.289l4.339,0.032
		c13.307,0.129,26.838,0.482,40.949,1.029c0.065,0,0.097-0.032,0.129-0.032v0.032c0.032,0,0.032,0,0.065,0
		c-0.129,0.611-0.097,1.221,0.065,1.672c1.157,2.989,1.929,5.593,2.41,8.197c0.418,2.346,0.772,4.725,1.092,7.103l0.257,1.735
		C364.626,270.439,364.947,273.493,364.69,276.546z" fill="#161616" data-original="#161616" class="hovered-path"></path>
	<path style="" d="M120.602,67.4l0.514,0.129v-0.065c0.835,0,1.575-0.578,1.929-1.478l0.611-1.735
		c1.575-3.375,3.407-6.622,5.239-9.867l3.342-6.043l3.342-6.011c0.546-0.964,0.225-2.218-0.707-2.764
		c-0.321-0.192-0.675-0.257-1.029-0.257c-0.74,0-1.414,0.386-1.735,0.964l-2.667,4.885l-4.179,7.554l-1.221,2.25l-1.221,2.25
		c-0.483,0.868-0.964,1.767-1.415,2.636c-0.868,1.672-1.575,3.375-2.218,5.11c-0.129,0.418-0.097,0.9,0.129,1.35
		C119.573,66.822,120.054,67.24,120.602,67.4z" fill="#161616" data-original="#161616" class="hovered-path"></path>
	<path style="" d="M129.054,69.618c-2.121,3.728-4.242,7.457-6.203,11.282c-0.514,0.997-0.225,2.153,0.707,2.732
		c0.289,0.16,0.643,0.257,0.997,0.257c0.771,0,1.414-0.386,1.735-0.964c1.8-3.536,3.761-6.975,5.69-10.446l0.514-0.868
		c1.383-2.475,2.796-4.95,4.242-7.392l2.604-4.531c0.514-0.932,0.192-2.153-0.707-2.7c-0.321-0.16-0.643-0.257-0.997-0.257
		c-0.707,0-1.414,0.386-1.735,0.964l-1.189,2.089C132.815,63.061,130.918,66.34,129.054,69.618z" fill="#161616" data-original="#161616" class="hovered-path"></path>
	<path style="" d="M136.897,75.114l-2.829,8.421l-2.861,8.454l-1.446,4.307c-1.157,3.472-2.346,6.975-3.599,10.446
		c-0.129,0.418-0.097,0.9,0.129,1.35c0.257,0.514,0.74,0.932,1.254,1.092l0.514,0.129v-0.065c0.835,0,1.575-0.578,1.929-1.478
		c1.254-3.439,2.41-6.943,3.568-10.446l1.478-4.307l2.829-8.421l2.861-8.454c0.129-0.451,0.097-0.932-0.16-1.381
		c-0.257-0.514-0.74-0.9-1.735-1.093C137.958,73.668,137.186,74.214,136.897,75.114z" fill="#161616" data-original="#161616" class="hovered-path"></path>
	<path style="" d="M340.418,56.119c0.707,0,1.35-0.354,1.735-0.964c1.383-2.218,2.796-4.436,4.371-6.557l2.732-3.599
		l2.764-3.599c0.289-0.354,0.289-1.029,0.192-1.478c-0.129-0.482-0.483-0.932-0.9-1.189c-0.257-0.129-0.546-0.225-1.061-0.225
		c-0.129,0-0.289,0-0.449,0c-0.578,0.16-0.868,0.514-1.221,0.964l-2.732,3.567l-2.732,3.599l-0.772,1.093l-0.803,1.093
		c-0.964,1.414-1.897,2.861-2.829,4.339c-0.257,0.418-0.321,0.932-0.192,1.446c0.129,0.514,0.451,0.997,0.9,1.254
		C339.742,56.023,340.064,56.119,340.418,56.119z" fill="#161616" data-original="#161616" class="hovered-path"></path>
	<path style="" d="M338.072,78.843c0.675,0,1.35-0.386,1.735-0.964c4.115-6.493,8.1-13.05,12.053-19.67
		c0.257-0.451,0.321-0.964,0.192-1.478c-0.129-0.514-0.451-0.964-0.9-1.221c-0.289-0.161-0.611-0.257-0.964-0.257
		c-0.675,0-1.383,0.386-1.735,0.964c-3.953,6.589-7.971,13.146-12.053,19.639c-0.257,0.451-0.354,0.964-0.225,1.478
		c0.128,0.546,0.482,0.997,0.932,1.254C337.397,78.747,337.718,78.843,338.072,78.843z" fill="#161616" data-original="#161616" class="hovered-path"></path>
	<path style="" d="M81.522,260.925c-0.675,0-1.35,0.354-1.767,0.964c-4.596,7.006-9.192,14.014-13.757,21.053
		c-1.189,1.832-2.314,3.664-3.439,5.496l-1.478,2.378c-1.897,3.086-3.696,6.236-5.464,9.418c-0.514,0.964-0.225,2.153,0.707,2.7
		c0.321,0.16,0.643,0.257,1.029,0.257c0.707,0,1.35-0.354,1.703-0.964c1.735-3.15,3.536-6.332,5.464-9.386l1.703-2.796
		c1.06-1.704,2.089-3.407,3.182-5.079l3.761-5.785c3.342-5.11,6.654-10.221,10.029-15.3c0.257-0.418,0.321-0.9,0.225-1.414
		c-0.129-0.514-0.482-0.997-0.932-1.286C82.165,261.021,81.844,260.925,81.522,260.925z" fill="#161616" data-original="#161616" class="hovered-path"></path>
	<path style="" d="M81.169,294.416c-0.129,0-0.289,0-0.449,0c-0.578,0.16-0.868,0.514-1.221,0.932l-6.428,8.903
		c-1.446,1.961-2.893,3.953-4.242,6.011l-2.635,3.985c-0.483,0.772-0.932,1.543-1.35,2.315l-0.514,0.868
		c-1.575,2.764-3.086,5.528-4.501,8.389c-0.514,1.029-0.225,2.153,0.707,2.7c0.289,0.16,0.643,0.257,1.029,0.257
		c0.74,0,1.381-0.354,1.672-0.964c1.318-2.604,2.7-5.174,4.147-7.714c0.675-1.157,1.35-2.315,1.993-3.472l0.803-1.221l0.997-1.543
		l0.643-0.964l0.611-0.964l1.029-1.51l2.572-3.568l3.439-4.757l3.472-4.788c0.257-0.321,0.354-0.803,0.257-1.286
		c-0.129-0.578-0.483-1.092-0.964-1.381C81.939,294.513,81.683,294.416,81.169,294.416z" fill="#161616" data-original="#161616" class="hovered-path"></path>
	<path style="" d="M79.015,324.984c-0.997,0-1.864,0.482-2.283,1.286c-5.431,11.024-11.732,24.106-17.227,37.863
		c-0.257,0.643-0.032,1.511,0.289,2.026c0.354,0.578,0.9,1.029,1.575,1.221l0.611,0.154c0.01,0,0.021,0.001,0.031,0.001v-0.09
		c0.451,0,0.932-0.129,1.383-0.354c0.675-0.418,0.964-0.997,1.189-1.575l1.414-3.536c2.153-5.047,4.404-10.124,6.653-15.139
		c0.771-1.735,1.607-3.439,2.41-5.142l0.74-1.446c1.8-3.793,3.632-7.554,5.464-11.315c0.707-1.381,0.321-2.861-0.932-3.599
		C79.915,325.079,79.465,324.984,79.015,324.984z" fill="#161616" data-original="#161616" class="hovered-path"></path>
	<path style="" d="M78.276,355.71c-0.803,0-1.51,0.386-1.864,1.029l-2.829,5.271l-2.829,5.239l-1.092,2.026
		c-0.964,1.735-1.897,3.504-2.829,5.304l-1.64,3.246l-0.997,1.961c-0.418,0.771-0.835,1.543-1.189,2.378
		c-0.771,1.64-1.51,3.31-2.25,4.982c-0.611,1.414-1.221,2.861-1.8,4.307l-0.643,1.575c-0.192,0.514-0.032,1.221,0.225,1.672
		c0.289,0.451,0.771,0.835,1.286,0.997l0.541,0.128c0.001,0,0.004,0,0.006,0v-0.096c0.386,0,0.772-0.097,1.093-0.257
		c0.514-0.321,0.771-0.74,0.997-1.318l0.771-1.832l0.611-1.478l2.25-5.079l0.835-1.8c0.289-0.643,0.611-1.286,0.932-1.897
		l0.611-1.157l1.672-3.278l0.578-1.092c0.803-1.672,1.703-3.278,2.604-4.918l1.157-2.153l1.8-3.342l3.856-7.2
		c0.578-1.061,0.225-2.346-0.771-2.956C79.015,355.807,78.662,355.71,78.276,355.71z" fill="#161616" data-original="#161616" class="hovered-path"></path>
	<path style="" d="M67.09,393.573c-0.386,0-0.707,0.097-0.997,0.257c-0.451,0.257-0.707,0.611-0.932,1.221
		c-1.318,3.599-2.732,7.2-4.21,10.735c-0.192,0.451-0.065,1.124,0.192,1.543c0.257,0.418,0.707,0.772,1.189,0.9l0.514,0.129v-0.065
		c0.354,0,0.707-0.097,1.029-0.257c0.451-0.321,0.675-0.675,0.9-1.221c1.51-3.536,2.893-7.135,4.242-10.735
		c0.129-0.418,0.097-0.932-0.16-1.383C68.601,394.184,68.119,393.798,67.09,393.573z" fill="#161616" data-original="#161616" class="hovered-path"></path>
	<path style="" d="M108.136,431.726c-0.129,0-0.289,0-0.451,0c-0.514,0.16-0.997,0.546-1.221,0.932l-7.425,16.714
		c-0.643,1.446-1.286,2.925-1.897,4.371l-1.029,2.41l-0.74,1.672c-0.803,1.864-1.51,3.793-2.218,5.722
		c-0.129,0.418-0.097,0.9,0.129,1.35c0.257,0.514,0.74,0.932,1.286,1.093l0.475,0.127c0.003,0,0.004,0,0.006,0v-0.096
		c0.354,0,0.707-0.097,1.029-0.257c0.386-0.257,0.675-0.611,0.9-1.189l0.74-1.961l0.74-1.993c3.728-8.678,7.585-17.324,11.442-25.97
		c0.225-0.514,0.321-0.964,0.192-1.51c-0.129-0.482-0.482-0.932-0.9-1.189C108.939,431.822,108.682,431.726,108.136,431.726z" fill="#161616" data-original="#161616" class="hovered-path"></path>
	<path style="" d="M120.767,440.147c-0.482,0-0.932,0.097-1.286,0.289c-0.514,0.321-0.868,0.772-1.124,1.478
		l-2.893,8.1l-1.446,4.05c-1.029,2.925-1.897,5.914-2.796,8.871l-0.418,1.381c-0.16,0.546-0.065,1.157,0.225,1.672
		c0.321,0.546,0.835,0.964,1.414,1.124l0.568,0.15c0.014,0,0.028,0,0.043,0v-0.086c0.964,0,1.864-0.675,2.186-1.672
		c2.507-7.489,5.142-14.914,7.843-22.306c0.192-0.514,0.129-1.124-0.16-1.672C122.599,440.885,122.021,440.372,120.767,440.147z" fill="#161616" data-original="#161616" class="hovered-path"></path>
	<path style="" d="M144.23,442.879c-1.124,0-2.443,0.74-2.732,2.026c-1.254,6.3-2.507,12.599-3.632,18.867
		c-0.16,0.835-0.065,1.446,0.257,2.024c0.354,0.578,0.868,0.997,1.543,1.189l0.631,0.158c0.004,0,0.008,0,0.012,0v-0.094
		c1.189,0,2.283-0.803,2.507-1.897c1.35-6.268,2.7-12.536,3.985-18.802C147.155,444.807,146.351,443.36,144.23,442.879z" fill="#161616" data-original="#161616" class="hovered-path"></path>
	<path style="" d="M166.504,440.885c-0.868,0-1.897,0.514-2.089,1.51l-0.707,3.856
		c-1.029,5.721-2.089,11.41-2.796,17.132c-0.129,0.9,0.675,1.767,1.478,1.993l0.509,0.128c0.003,0,0.004,0,0.005,0v-0.096
		c0.354,0,0.707-0.097,1.029-0.257c0.418-0.257,0.868-0.74,0.9-1.189c0.74-4.596,1.607-9.16,2.443-13.725l1.221-6.685
		c0.161-0.675,0.097-1.157-0.16-1.64C168.014,441.433,167.565,441.079,166.504,440.885z" fill="#161616" data-original="#161616" class="hovered-path"></path>
	<path style="" d="M183.539,448.793c-0.514,0-1.092,0.225-1.478,0.643c-0.354,0.386-0.514,0.835-0.482,1.318
		c0.321,4.275,0.643,8.581,0.9,12.856c0.065,1.124,0.9,1.961,1.961,1.961c0.514,0,1.092-0.225,1.478-0.643
		c0.354-0.386,0.514-0.835,0.482-1.318c-0.257-4.275-0.578-8.581-0.9-12.856C185.436,449.596,184.633,448.793,183.539,448.793z" fill="#161616" data-original="#161616" class="hovered-path"></path>
	<path style="" d="M262.254,438.089c-0.257-0.065-0.514-0.097-0.835-0.097c-1.575,0-2.989,1.029-3.375,2.507
		l-0.418,1.8c-0.997,3.985-1.993,8.003-2.861,12.053c-0.932,4.436-1.704,8.935-2.315,13.499c-0.16,1.381,1.092,2.732,2.347,3.086
		l0.74,0.161v-0.097c1.35,0,2.893-0.835,3.15-2.283c1.672-8.838,3.793-17.549,5.979-26.421
		C265.115,440.436,264.054,438.604,262.254,438.089z" fill="#161616" data-original="#161616" class="hovered-path"></path>
	<path style="" d="M278.903,443.94c-0.964,0-1.864,0.675-2.057,1.575c-1.51,7.392-2.989,14.817-4.242,22.274
		c-0.097,0.514-0.129,1.029,0.16,1.575c0.289,0.451,0.74,0.803,1.254,0.964l0.483,0.129v-0.065c0.835,0,1.832-0.578,1.992-1.478
		c1.383-7.425,2.925-14.882,4.468-22.242C281.185,445.611,280.736,444.357,278.903,443.94z" fill="#161616" data-original="#161616" class="hovered-path"></path>
	<path style="" d="M297.545,452.36c-0.354-0.932-1.124-1.607-2.507-1.607c-0.097,0-0.16,0-0.257,0
		c-0.611,0.192-1.124,0.611-1.446,1.189c-0.257,0.546-0.321,1.092-0.16,1.607c0.449,1.286,0.868,2.604,1.286,3.921
		c0.546,1.64,0.964,3.278,1.383,4.917l0.225,0.868c0.257,0.964,1.157,1.64,2.186,1.64v0.089c0.01,0,0.023-0.001,0.034-0.001
		l0.545-0.151c1.189-0.321,1.864-1.575,1.575-2.764c-0.418-1.703-0.868-3.439-1.414-5.142
		C298.51,455.413,298.06,453.87,297.545,452.36z" fill="#161616" data-original="#161616" class="hovered-path"></path>
</g>
<g>
</g>
<g>
</g>
<g>
</g>
<g>
</g>
<g>
</g>
<g>
</g>
<g>
</g>
<g>
</g>
<g>
</g>
<g>
</g>
<g>
</g>
<g>
</g>
<g>
</g>
<g>
</g>
<g>
</g>
</g></svg>